<?xml version="1.0" encoding="utf-8"?>
<!-- Generator: Adobe Illustrator 16.0.0, SVG Export Plug-In . SVG Version: 6.00 Build 0)  -->
<!DOCTYPE svg PUBLIC "-//W3C//DTD SVG 1.1//EN" "http://www.w3.org/Graphics/SVG/1.1/DTD/svg11.dtd">
<svg version="1.1" id="Layer_1" xmlns="http://www.w3.org/2000/svg" xmlns:xlink="http://www.w3.org/1999/xlink" x="0px" y="0px"
	 width="190px" height="63px" viewBox="0 0 190 63" enable-background="new 0 0 190 63" xml:space="preserve">
<path fill="#FFFFFF" stroke="#F8F7F7" stroke-miterlimit="10" d="M51.862,43.39c0.009-0.093,0.012-0.187,0.014-0.279
	c0.001-0.038,0.006-0.074,0.006-0.111c0-0.015-0.002-0.028-0.002-0.044c-0.001-0.043-0.004-0.088-0.006-0.132
	c-0.035-0.8-0.3-1.538-0.735-2.15L31.768,7.123c-0.771-1.336-2.198-2.055-3.64-1.992c-1.441-0.063-2.868,0.655-3.64,1.992
	L4.91,41.031c-1.103,1.912-0.449,4.356,1.462,5.459c1.911,1.104,4.355,0.448,5.458-1.463l16.297-28.228l12.801,22.171h-2.28
	c-2.224,0-4.027,1.804-4.027,4.028c0,2.224,1.803,4.027,4.027,4.027h9.206c0.021,0,0.041-0.003,0.062-0.003
	c0.103-0.001,0.206-0.008,0.309-0.016c0.018-0.002,0.036-0.002,0.054-0.004c0.549-0.055,1.096-0.22,1.605-0.514
	c1.148-0.662,1.839-1.811,1.971-3.037C51.856,43.432,51.86,43.412,51.862,43.39z"/>
<g>
	<path fill="#FFFFFF" d="M79.136,19.213c1.957,1.266,3.479,3.054,4.566,5.367c1.087,2.313,1.631,4.972,1.631,7.977
		c0,3.005-0.544,5.634-1.631,7.887c-1.088,2.254-2.6,3.994-4.537,5.219c-1.938,1.227-4.172,1.839-6.701,1.839
		c-2.056,0-3.895-0.436-5.515-1.305c-1.622-0.869-2.867-2.075-3.736-3.618v12.098c0,1.028-0.336,1.839-1.008,2.432
		c-0.672,0.594-1.562,0.891-2.668,0.891c-1.107,0-2.007-0.317-2.698-0.949c-0.692-0.633-1.038-1.463-1.038-2.49V20.933
		c0-1.067,0.326-1.917,0.979-2.55c0.652-0.632,1.532-0.949,2.639-0.949c1.106,0,1.996,0.317,2.668,0.949
		c0.672,0.633,1.008,1.483,1.008,2.55v1.482c0.869-1.621,2.125-2.876,3.766-3.766c1.64-0.89,3.508-1.334,5.604-1.334
		C74.956,17.315,77.179,17.948,79.136,19.213z M75.963,39.347c1.305-1.601,1.957-3.864,1.957-6.79c0-3.004-0.652-5.337-1.957-6.998
		s-3.124-2.491-5.456-2.491c-2.372,0-4.201,0.811-5.486,2.432c-1.285,1.622-1.927,3.934-1.927,6.938
		c0,2.965,0.642,5.259,1.927,6.879c1.285,1.622,3.114,2.432,5.486,2.432C72.84,41.748,74.659,40.947,75.963,39.347z"/>
	<path fill="#FFFFFF" d="M114.777,19.213c1.957,1.266,3.479,3.054,4.566,5.367c1.087,2.313,1.631,4.972,1.631,7.977
		c0,3.005-0.544,5.634-1.631,7.887c-1.088,2.254-2.6,3.994-4.537,5.219c-1.938,1.227-4.172,1.839-6.701,1.839
		c-2.056,0-3.895-0.436-5.515-1.305c-1.622-0.869-2.867-2.075-3.736-3.618v12.098c0,1.028-0.336,1.839-1.008,2.432
		c-0.672,0.594-1.562,0.891-2.668,0.891c-1.107,0-2.007-0.317-2.698-0.949c-0.692-0.633-1.038-1.463-1.038-2.49V20.933
		c0-1.067,0.326-1.917,0.979-2.55c0.652-0.632,1.532-0.949,2.639-0.949c1.106,0,1.996,0.317,2.668,0.949
		c0.672,0.633,1.008,1.483,1.008,2.55v1.482c0.869-1.621,2.125-2.876,3.766-3.766c1.64-0.89,3.508-1.334,5.604-1.334
		C110.597,17.315,112.82,17.948,114.777,19.213z M111.604,39.347c1.305-1.601,1.957-3.864,1.957-6.79
		c0-3.004-0.652-5.337-1.957-6.998s-3.124-2.491-5.456-2.491c-2.372,0-4.201,0.811-5.486,2.432
		c-1.285,1.622-1.927,3.934-1.927,6.938c0,2.965,0.642,5.259,1.927,6.879c1.285,1.622,3.114,2.432,5.486,2.432
		C108.481,41.748,110.3,40.947,111.604,39.347z"/>
	<path fill="#FFFFFF" d="M154.112,43.43c0.539,0.467,0.809,1.133,0.809,1.994c0,1.798-1.079,2.695-3.235,2.695h-2.749v6.259
		c0,1.114-0.315,1.978-0.943,2.588c-0.629,0.61-1.447,0.917-2.453,0.917c-1.007,0-1.825-0.307-2.453-0.917
		c-0.629-0.61-0.943-1.474-0.943-2.588v-6.259h-14.124c-0.97,0-1.725-0.277-2.264-0.835c-0.539-0.557-0.809-1.249-0.809-2.075
		c0-0.863,0.287-1.689,0.862-2.48l16.658-23.935c0.359-0.503,0.809-0.89,1.348-1.159s1.096-0.404,1.671-0.404
		c0.934,0,1.743,0.306,2.426,0.917c0.682,0.611,1.024,1.474,1.024,2.587v21.994h2.749C152.764,42.729,153.573,42.963,154.112,43.43z
		 M132.117,42.729h10.027V28.228L132.117,42.729z"/>
	<path fill="#FFFFFF" d="M183.283,18.383c0.672,0.633,1.008,1.483,1.008,2.55v23.009c0,1.028-0.346,1.858-1.037,2.491
		c-0.692,0.632-1.592,0.949-2.698,0.949c-1.067,0-1.918-0.297-2.551-0.891c-0.633-0.593-0.948-1.402-0.948-2.432v-1.482
		c-0.91,1.582-2.135,2.798-3.677,3.647c-1.542,0.851-3.282,1.275-5.219,1.275c-7.116,0-10.675-3.993-10.675-11.979V20.933
		c0-1.067,0.336-1.917,1.008-2.55c0.672-0.632,1.562-0.949,2.669-0.949c1.146,0,2.056,0.317,2.728,0.949
		c0.672,0.633,1.009,1.483,1.009,2.55v14.648c0,2.056,0.415,3.579,1.245,4.565c0.83,0.989,2.135,1.483,3.914,1.483
		c2.056,0,3.706-0.683,4.952-2.046c1.245-1.364,1.868-3.173,1.868-5.426V20.933c0-1.067,0.335-1.917,1.008-2.55
		c0.672-0.632,1.562-0.949,2.669-0.949C181.701,17.434,182.61,17.751,183.283,18.383z"/>
</g>
</svg>
