<svg id="Layer_1" data-name="Layer 1" xmlns="http://www.w3.org/2000/svg" viewBox="0 0 30.32 29.39"><title>coverage-liquid</title><path d="M22.53,24.75a4.71,4.71,0,0,1-3.76-1.95A4.42,4.42,0,0,0,15.16,21a5.08,5.08,0,0,0-3.76,1.83,5.5,5.5,0,0,1-4,2A4.7,4.7,0,0,1,3.61,22.8,4.42,4.42,0,0,0,0,21V20.21a5.16,5.16,0,0,1,4.15,2.08A4,4,0,0,0,7.37,24a4.83,4.83,0,0,0,3.52-1.75,5.83,5.83,0,0,1,4.28-2,5.16,5.16,0,0,1,4.15,2.08A4,4,0,0,0,22.53,24,4.82,4.82,0,0,0,26,22.25a5.83,5.83,0,0,1,4.28-2V21a5.08,5.08,0,0,0-3.76,1.83A5.5,5.5,0,0,1,22.53,24.75Z" style="fill:#f78d1e"/><path d="M22.53,29.39a4.7,4.7,0,0,1-3.76-1.95,4.42,4.42,0,0,0-3.6-1.84,5.08,5.08,0,0,0-3.76,1.83,5.49,5.49,0,0,1-4,2,4.7,4.7,0,0,1-3.76-1.95A4.42,4.42,0,0,0,0,25.6V24.85a5.15,5.15,0,0,1,4.15,2.08,4,4,0,0,0,3.21,1.71,4.82,4.82,0,0,0,3.52-1.75,5.83,5.83,0,0,1,4.28-2,5.15,5.15,0,0,1,4.15,2.08,4,4,0,0,0,3.21,1.71A4.82,4.82,0,0,0,26,26.89a5.83,5.83,0,0,1,4.28-2V25.6a5.08,5.08,0,0,0-3.76,1.83A5.49,5.49,0,0,1,22.53,29.39Z" style="fill:#f78d1e"/><path d="M12.75,16.77A3.79,3.79,0,0,1,9,13c0-1,.8-2.51,1.65-4.11s1.75-3.3,1.75-4.34h0.75c0,1,.89,2.71,1.75,4.34S16.53,12,16.53,13A3.79,3.79,0,0,1,12.75,16.77Zm0-10.57a28.1,28.1,0,0,1-1.47,3A11.64,11.64,0,0,0,9.72,13a3,3,0,1,0,6.06,0,11.64,11.64,0,0,0-1.57-3.76A28.1,28.1,0,0,1,12.75,6.19Z" style="fill:#f78d1e"/><path d="M19.73,9.45a3,3,0,0,1-3-3A8.78,8.78,0,0,1,18,3.28,9.71,9.71,0,0,0,19.35,0H20.1a9.71,9.71,0,0,0,1.33,3.28,8.78,8.78,0,0,1,1.28,3.19A3,3,0,0,1,19.73,9.45Zm0-7.94c-0.27.67-.66,1.4-1,2.12a8.92,8.92,0,0,0-1.19,2.84,2.23,2.23,0,1,0,4.47,0,8.93,8.93,0,0,0-1.19-2.84C20.39,2.91,20,2.18,19.73,1.51Z" style="fill:#f78d1e"/></svg>