<svg id="Layer_1" data-name="Layer 1" xmlns="http://www.w3.org/2000/svg" viewBox="0 0 29.17 34.07"><title>coverage-short-circuit</title><path d="M24.54,34.07H2.34A2.34,2.34,0,0,1,0,31.73V17.9a2.34,2.34,0,0,1,2.34-2.34H22l4.86,4.73V31.73A2.34,2.34,0,0,1,24.54,34.07Zm-22.2-18A1.84,1.84,0,0,0,.5,17.9V31.73a1.84,1.84,0,0,0,1.84,1.84h22.2a1.84,1.84,0,0,0,1.84-1.84V20.5l-4.56-4.44H2.34Z" style="fill:#f78d1e"/><path d="M7.73,29.76a4.95,4.95,0,1,1,4.95-4.95A5,5,0,0,1,7.73,29.76Zm0-9.4a4.45,4.45,0,1,0,4.45,4.45A4.45,4.45,0,0,0,7.73,20.37Z" style="fill:#f78d1e"/><path d="M9.86,29.06a5,5,0,0,1-2.38-4.29,4.47,4.47,0,0,0-2.13-3.86l0.25-.43A5,5,0,0,1,8,24.77a4.46,4.46,0,0,0,2.13,3.86Z" style="fill:#f78d1e"/><path d="M11.11,26.44a5.06,5.06,0,0,1-3.56-1.5,4.47,4.47,0,0,0-4.24-1.22l-0.12-.48a5,5,0,0,1,4.71,1.35,4.47,4.47,0,0,0,4.24,1.22l0.12,0.48A4.65,4.65,0,0,1,11.11,26.44Z" style="fill:#f78d1e"/><path d="M3.87,27.15l-0.43-.25a5,5,0,0,1,4.29-2.38,4.47,4.47,0,0,0,3.86-2.13L12,22.64A5,5,0,0,1,7.73,25,4.46,4.46,0,0,0,3.87,27.15Z" style="fill:#f78d1e"/><path d="M6.2,29.3a5,5,0,0,1,1.35-4.71,4.48,4.48,0,0,0,1.22-4.24l0.48-.12a5,5,0,0,1-1.35,4.72,4.46,4.46,0,0,0-1.22,4.24Z" style="fill:#f78d1e"/><path d="M19.15,29.76a4.95,4.95,0,1,1,4.95-4.95A5,5,0,0,1,19.15,29.76Zm0-9.4a4.45,4.45,0,1,0,4.45,4.45A4.45,4.45,0,0,0,19.15,20.37Z" style="fill:#f78d1e"/><path d="M21.28,29.06a5,5,0,0,1-2.38-4.29,4.47,4.47,0,0,0-2.13-3.86L17,20.48a5,5,0,0,1,2.38,4.29,4.46,4.46,0,0,0,2.13,3.86Z" style="fill:#f78d1e"/><path d="M22.53,26.44A5.07,5.07,0,0,1,19,24.94a4.47,4.47,0,0,0-4.24-1.22l-0.12-.48a5,5,0,0,1,4.71,1.35,4.48,4.48,0,0,0,4.24,1.22l0.12,0.48A4.64,4.64,0,0,1,22.53,26.44Z" style="fill:#f78d1e"/><path d="M15.29,27.15l-0.43-.25a5,5,0,0,1,4.29-2.38A4.47,4.47,0,0,0,23,22.38l0.43,0.25A5,5,0,0,1,19.15,25,4.47,4.47,0,0,0,15.29,27.15Z" style="fill:#f78d1e"/><path d="M17.62,29.3A5,5,0,0,1,19,24.59a4.47,4.47,0,0,0,1.22-4.24l0.48-.12a5,5,0,0,1-1.35,4.72,4.46,4.46,0,0,0-1.22,4.24Z" style="fill:#f78d1e"/><polygon points="26.88 31.98 26.38 31.98 26.38 15.66 29.16 15.6 29.17 16.1 26.88 16.15 26.88 31.98" style="fill:#f78d1e"/><path d="M27.6,30.68h-1v-0.5h1a0.45,0.45,0,0,0,.45-0.45V26.16a0.45,0.45,0,0,0-.45-0.45h-1v-0.5h1a1,1,0,0,1,.95.95v3.58A1,1,0,0,1,27.6,30.68Z" style="fill:#f78d1e"/><path d="M27.2,22.42H26.63v-0.5H27.2a0.45,0.45,0,0,0,.45-0.45V20.36a0.45,0.45,0,0,0-.45-0.45H26.63v-0.5H27.2a1,1,0,0,1,.95.95v1.11A1,1,0,0,1,27.2,22.42Z" style="fill:#f78d1e"/><polygon points="27 0 15.55 13.48 19.98 15.43 14.45 28.17 28.1 13.18 22.93 10.15 27 0" style="fill:#fbb040"/></svg>