<svg id="Layer_1" data-name="Layer 1" xmlns="http://www.w3.org/2000/svg" viewBox="0 0 25.27 26.33"><title>coverage-fire</title><path d="M22.19,19.4L21.57,19s3.13-4.6,2.93-7C24.17,7.8,20.68,3.63,19.19,2,19,4.52,16.88,7.71,16.78,7.86l-0.62-.42s2.68-4.06,2.26-6.3L18.21,0,19,0.8C19.28,1,24.8,6.34,25.25,11.9,25.47,14.58,22.33,19.21,22.19,19.4Z" style="fill:#f78d1e"/><path d="M7.19,24.06L6.6,23.92a9,9,0,0,1-6.56-8C-0.51,9.44,5,6.06,5,6L8.12,4.18,5.49,6.63c-1.11,1-.31,4,0.1,5.08L4.88,12a10.13,10.13,0,0,1-.64-4.38A9.93,9.93,0,0,0,.79,15.86,8.19,8.19,0,0,0,6.26,23,6.44,6.44,0,0,1,7,20.2l0.67,0.33A4.76,4.76,0,0,0,7,23.46Z" style="fill:#f78d1e"/><path d="M12.78,23.92s-8.06-2.46-8.87-8.17,8.19-14,8.19-14A29.18,29.18,0,0,0,17.44,8.6c3.32,3,5.65,5,5.65,7.75s-6,8.2-6,8.2,2.06-3.76,1.79-6.27-4.71-5.19-5.4-7.35c0,0-3.56,3.94-2.93,7A25.07,25.07,0,0,0,12.78,23.92Z" style="fill:#fff"/><path d="M15.68,26.33l1.07-2s2-3.69,1.75-6.05c-0.13-1.26-1.51-2.65-2.83-4a14.1,14.1,0,0,1-2.29-2.7c-0.87,1.09-2.93,4-2.47,6.21a24.87,24.87,0,0,0,2.2,5.9l0.44,0.81-0.88-.27c-0.34-.1-8.3-2.59-9.13-8.48s7.94-14,8.31-14.29l0.36-.33L12.44,1.6A29,29,0,0,0,17.7,8.33L18.22,8.8c3,2.79,5.24,4.8,5.24,7.55s-5.88,8.25-6.13,8.47ZM12,2.38C10.39,4,3.6,10.86,4.28,15.69,4.89,20,10,22.43,12,23.25A24.12,24.12,0,0,1,10.18,18c-0.66-3.2,2.87-7.15,3-7.31l0.44-.48,0.2,0.62a9.83,9.83,0,0,0,2.37,3c1.42,1.43,2.88,2.91,3,4.43a10.58,10.58,0,0,1-1,4.63c1.91-1.95,4.43-4.89,4.43-6.51,0-2.42-2-4.24-5-7l-0.52-.48A29.42,29.42,0,0,1,12,2.38Z" style="fill:#f78d1e"/></svg>