<svg id="Layer_1" data-name="Layer 1" xmlns="http://www.w3.org/2000/svg" viewBox="0 0 339.75 431.04"><title>miner360</title><path d="M35.1,173.76A10.86,10.86,0,1,1,46,162.9,10.87,10.87,0,0,1,35.1,173.76Zm0-18.75A7.89,7.89,0,1,0,43,162.9,7.89,7.89,0,0,0,35.1,155Z" style="fill:#f78d1e"/><rect x="32.88" y="172.27" width="4.46" height="30.8" style="fill:#f78d1e"/><path d="M35.11,217.68a8,8,0,1,1,8-8.05A8.06,8.06,0,0,1,35.11,217.68Zm0-13.12a5.07,5.07,0,1,0,5.07,5.06A5.08,5.08,0,0,0,35.11,204.56Z" style="fill:#f78d1e"/><path d="M239.74,173.76a10.86,10.86,0,1,1,10.86-10.86A10.87,10.87,0,0,1,239.74,173.76Zm0-18.75a7.89,7.89,0,1,0,7.89,7.89A7.89,7.89,0,0,0,239.74,155Z" style="fill:#f78d1e"/><rect x="237.52" y="172.27" width="4.46" height="30.8" style="fill:#f78d1e"/><path d="M239.76,217.68a8,8,0,1,1,8-8.05A8.06,8.06,0,0,1,239.76,217.68Zm0-13.12a5.07,5.07,0,1,0,5.07,5.06A5.08,5.08,0,0,0,239.76,204.56Z" style="fill:#f78d1e"/><path d="M207,96.09a48,48,0,0,1-34-82A48,48,0,1,1,240.93,82,47.7,47.7,0,0,1,207,96.09Zm0-93.71a45.66,45.66,0,0,0-32.29,78,45.66,45.66,0,1,0,64.56-64.58A45.32,45.32,0,0,0,207,2.38Z" style="fill:#f78d1e"/><polygon points="192.8 203.07 188.34 203.07 188.34 155.66 204.73 140.07 204.73 95.92 209.19 95.92 209.19 141.99 192.8 157.58 192.8 203.07" style="fill:#f78d1e"/><path d="M190.58,217.68a8,8,0,1,1,8-8.05A8.06,8.06,0,0,1,190.58,217.68Zm0-13.12a5.07,5.07,0,1,0,5.07,5.06A5.08,5.08,0,0,0,190.58,204.56Z" style="fill:#f78d1e"/><path d="M225.84,72.32l-35-35,5.4-5.4,35,35Zm-30.77-35,30.77,30.76L227,66.92,196.26,36.15Z" style="fill:#f78d1e"/><polygon points="186.82 33.29 182.39 28.87 187.78 23.48 192.21 27.91 190.1 30.01 187.78 27.69 186.6 28.87 188.93 31.19 186.82 33.29" style="fill:#f78d1e"/><path d="M182.87,68.92l-2.46-3.55c-4.67-6.72-4.51-23.37,8-35.88a35.78,35.78,0,0,1,24.92-10.8c4.42,0,8.42,1,11,2.78l3.54,2.46-4.3.25A44.92,44.92,0,0,0,195.62,36.7a44.74,44.74,0,0,0-12.51,27.91Zm30.45-47.25a32.61,32.61,0,0,0-22.82,9.93c-9,9-10.8,19.91-9.57,26.89A47.77,47.77,0,0,1,193.52,34.6,47.88,47.88,0,0,1,217.41,22,23.56,23.56,0,0,0,213.32,21.67Z" style="fill:#f78d1e"/><path d="M138.18,155A10.86,10.86,0,1,1,149,144.16,10.86,10.86,0,0,1,138.18,155Zm0-18.75a7.89,7.89,0,1,0,7.89,7.89A7.89,7.89,0,0,0,138.18,136.26Z" style="fill:#f78d1e"/><rect x="135.95" y="152.72" width="4.46" height="50.72" style="fill:#f78d1e"/><path d="M138.19,217.68a8,8,0,1,1,8-8.05A8.06,8.06,0,0,1,138.19,217.68Zm0-13.12a5.07,5.07,0,1,0,5.07,5.06A5.08,5.08,0,0,0,138.19,204.56Z" style="fill:#f78d1e"/><polygon points="91.94 203.44 87.47 203.44 87.47 176.62 71.08 161.03 71.08 137.37 75.55 137.37 75.55 159.11 91.94 174.7 91.94 203.44" style="fill:#f78d1e"/><path d="M89.71,217.68a8,8,0,1,1,8-8.05A8.06,8.06,0,0,1,89.71,217.68Zm0-13.12a5.07,5.07,0,1,0,5.06,5.06A5.08,5.08,0,0,0,89.71,204.56Z" style="fill:#f78d1e"/><path d="M73.31,138.56h0a48.05,48.05,0,1,1,34-14.08,47.68,47.68,0,0,1-34,14.08Zm0-93.72a45.66,45.66,0,1,0,32.3,13.38A45.33,45.33,0,0,0,73.3,44.85Z" style="fill:#f78d1e"/><path d="M54.44,114.78L49,109.39l35-35,5.4,5.41Zm-1.19-5.39,1.19,1.19L85.2,79.81,84,78.62Z" style="fill:#f78d1e"/><polygon points="93.45 75.76 91.35 73.66 93.67 71.33 92.49 70.15 90.17 72.47 88.07 70.37 92.49 65.94 97.88 71.33 93.45 75.76" style="fill:#f78d1e"/><path d="M97.4,111.38l-0.24-4.31a44.7,44.7,0,0,0-12.5-27.9A44.89,44.89,0,0,0,56.75,66.66l-4.3-.25L56,63.95c2.55-1.77,6.55-2.78,11-2.78A35.77,35.77,0,0,1,91.87,72c12.51,12.51,12.67,29.15,8,35.87ZM62.84,64.48A47.86,47.86,0,0,1,86.76,77.07,47.75,47.75,0,0,1,99.34,101c1.23-7-.6-17.91-9.57-26.89A32.59,32.59,0,0,0,67,64.14,23.93,23.93,0,0,0,62.84,64.48Z" style="fill:#f78d1e"/><path d="M285.64,431h-259A26.64,26.64,0,0,1,0,404.43V243a26.64,26.64,0,0,1,26.61-26.61H256l56.27,54.79V404.43A26.64,26.64,0,0,1,285.64,431Zm-259-210.2A22.17,22.17,0,0,0,4.46,243V404.43a22.17,22.17,0,0,0,22.15,22.15h259a22.17,22.17,0,0,0,22.14-22.15V273l-53.62-52.21H26.61Z" style="fill:#f78d1e"/><path d="M89.52,380.76a57,57,0,1,1,57.05-57.05A57.12,57.12,0,0,1,89.52,380.76Zm0-109.63a52.59,52.59,0,1,0,52.59,52.58A52.65,52.65,0,0,0,89.52,271.12Z" style="fill:#f78d1e"/><path d="M115.08,371.95c-16.68-9.84-27-28.54-27-48.81,0-19.22-9.8-36.95-25.58-46.26L64,274.32c16.68,9.84,27,28.55,27,48.82,0,19.22,9.8,36.94,25.58,46.25Z" style="fill:#f78d1e"/><path d="M129,341.25a57.66,57.66,0,0,1-40.5-17.05c-13.59-13.59-33-19.2-50.8-14.64l-0.74-2.88c18.74-4.82,39.31,1.08,53.64,15.42,13.59,13.57,33.06,19.18,50.8,14.63l0.74,2.88A52.81,52.81,0,0,1,129,341.25Z" style="fill:#f78d1e"/><path d="M43.27,350.2l-2.56-1.51c9.83-16.67,28.53-27,48.81-27,19.22,0,36.95-9.81,46.27-25.59l2.56,1.51c-9.86,16.69-28.57,27.06-48.83,27.06C70.29,324.63,52.57,334.42,43.27,350.2Z" style="fill:#f78d1e"/><path d="M73.08,375.72c-4.83-18.77,1.06-39.32,15.39-53.63,13.58-13.61,19.19-33.08,14.63-50.82l2.88-.74c4.82,18.75-1.09,39.31-15.41,53.66C77,337.77,71.39,357.22,76,375Z" style="fill:#f78d1e"/><path d="M222.71,380.76a57,57,0,1,1,57.05-57.05A57.11,57.11,0,0,1,222.71,380.76Zm0-109.63A52.59,52.59,0,1,0,275.3,323.7,52.64,52.64,0,0,0,222.71,271.12Z" style="fill:#f78d1e"/><path d="M248.27,371.95c-16.68-9.84-27-28.54-27-48.81,0-19.22-9.8-36.95-25.58-46.26l1.51-2.56c16.68,9.84,27,28.55,27,48.82,0,19.22,9.8,36.93,25.58,46.25Z" style="fill:#f78d1e"/><path d="M262.17,341.24a57.68,57.68,0,0,1-40.5-17c-13.59-13.59-33.05-19.22-50.79-14.64l-0.74-2.88c18.76-4.82,39.31,1.09,53.63,15.42,13.59,13.57,33.06,19.18,50.8,14.63l0.74,2.88A53,53,0,0,1,262.17,341.24Z" style="fill:#f78d1e"/><path d="M176.47,350.2l-2.56-1.51c9.84-16.67,28.54-27,48.81-27,19.22,0,36.95-9.81,46.27-25.59l2.56,1.51c-9.86,16.69-28.57,27.06-48.83,27.06C203.49,324.63,185.77,334.42,176.47,350.2Z" style="fill:#f78d1e"/><path d="M206.27,375.72c-4.83-18.76,1.06-39.32,15.39-53.63,13.59-13.61,19.2-33.08,14.63-50.82l2.88-.74c4.83,18.75-1.08,39.32-15.41,53.66-13.59,13.57-19.18,33-14.61,50.78Z" style="fill:#f78d1e"/><polygon points="312.24 407.32 307.78 407.32 307.78 217.67 339.4 215.24 339.75 219.69 312.24 221.8 312.24 407.32" style="fill:#f78d1e"/><path d="M321.38,391.43H310V387h11.38a5.9,5.9,0,0,0,5.9-5.89V339.36a5.9,5.9,0,0,0-5.9-5.89H310V329h11.38a10.37,10.37,0,0,1,10.36,10.36v41.72A10.37,10.37,0,0,1,321.38,391.43Z" style="fill:#f78d1e"/><path d="M316.66,295H310v-4.46h6.66a5.9,5.9,0,0,0,5.9-5.89v-13a5.9,5.9,0,0,0-5.9-5.89H310v-4.46h6.66A10.37,10.37,0,0,1,327,271.71v13A10.37,10.37,0,0,1,316.66,295Z" style="fill:#f78d1e"/></svg>