<svg id="Layer_1" data-name="Layer 1" xmlns="http://www.w3.org/2000/svg" viewBox="0 0 252.41 330.95"><title>wallet360</title><path d="M93.3,120.78a7.61,7.61,0,1,1,7.62-7.61A7.62,7.62,0,0,1,93.3,120.78Zm0-13.14a5.53,5.53,0,1,0,5.53,5.53A5.53,5.53,0,0,0,93.3,107.64Z" style="fill:#f78d1e"/><rect x="91.74" y="119.73" width="3.13" height="21.59" style="fill:#f78d1e"/><path d="M93.31,151.56a5.64,5.64,0,1,1,5.63-5.64A5.65,5.65,0,0,1,93.31,151.56Zm0-9.2a3.56,3.56,0,1,0,3.55,3.55A3.56,3.56,0,0,0,93.31,142.36Z" style="fill:#f78d1e"/><path d="M46.58,96.32A35.2,35.2,0,1,1,71.46,86,35,35,0,0,1,46.58,96.32Zm0-68.3A33.11,33.11,0,1,0,70,37.71,32.88,32.88,0,0,0,46.58,28Z" style="fill:#f78d1e"/><path d="M47.68,39.19L62,46.14l-16.26,5L31.52,44.62l16.16-5.43m0.14-2.25-22,7.38,19.76,9,22.1-6.75L47.82,36.95h0Z" style="fill:#f78d1e"/><path d="M65.66,51.72V74.54L50.54,67.68V56.27l15.13-4.56m2.09-2.81-19.3,5.81V69l19.3,8.76V48.91h0Z" style="fill:#f78d1e"/><path d="M27.48,49.47l15.33,7.12V82.08L27.48,75.19V49.47M25.4,46.2V76.54l19.5,8.77v-30L25.4,46.2h0Z" style="fill:#f78d1e"/><polygon points="59.62 141.58 56.49 141.58 56.49 122.78 45.01 111.85 45.01 95.27 48.14 95.27 48.14 110.51 59.62 121.44 59.62 141.58" style="fill:#f78d1e"/><path d="M58.06,151.56a5.64,5.64,0,1,1,5.64-5.64A5.65,5.65,0,0,1,58.06,151.56Zm0-9.2a3.56,3.56,0,1,0,3.55,3.55A3.56,3.56,0,0,0,58.06,142.36Z" style="fill:#f78d1e"/><path d="M121.53,81.23a33.88,33.88,0,1,1,0-67.77,33.88,33.88,0,0,1,24,57.84A33.63,33.63,0,0,1,121.53,81.23Zm0-65.68A31.8,31.8,0,1,0,144,24.87,31.6,31.6,0,0,0,121.53,15.55Z" style="fill:#f78d1e"/><path d="M127.36,61.71h-18.6V59.63h18.6a5.55,5.55,0,1,0,0-11.09l-12.71-.15V46.3l12.7-.14a5.55,5.55,0,1,0,0-11.09h-18.6V33h18.6a7.81,7.81,0,0,1,8,7.62,7.6,7.6,0,0,1-4.22,6.73,7.61,7.61,0,0,1,4.22,6.73A7.82,7.82,0,0,1,127.36,61.71Z" style="fill:#f78d1e"/><rect x="113.62" y="34.03" width="2.09" height="26.64" style="fill:#f78d1e"/><rect x="116.72" y="24.25" width="2.09" height="9.54" style="fill:#f78d1e"/><rect x="124.44" y="24.25" width="2.09" height="9.54" style="fill:#f78d1e"/><rect x="116.72" y="60.67" width="2.09" height="9.77" style="fill:#f78d1e"/><rect x="124.44" y="60.67" width="2.09" height="9.77" style="fill:#f78d1e"/><rect x="119.95" y="80.19" width="3.13" height="61.13" style="fill:#f78d1e"/><path d="M121.52,151.56a5.64,5.64,0,1,1,5.64-5.64A5.65,5.65,0,0,1,121.52,151.56Zm0-9.2a3.56,3.56,0,1,0,3.55,3.55A3.56,3.56,0,0,0,121.52,142.36Z" style="fill:#f78d1e"/><path d="M196.33,67.35A33.67,33.67,0,0,1,172.51,9.86a33.67,33.67,0,1,1,47.61,47.62A33.42,33.42,0,0,1,196.33,67.35Zm0-65.68A32,32,0,0,0,173.69,56.3,32,32,0,1,0,218.95,11,31.77,31.77,0,0,0,196.33,1.67Z" style="fill:#f78d1e"/><path d="M196.28,10.15l14.06,23.34-14.06,8.4-14-8.4,14-23.34m0-3.24L180,34.07l16.27,9.77,16.35-9.77L196.27,6.91h0Z" style="fill:#f78d1e"/><path d="M206.78,42.7L196.32,57.54,185.86,42.7l9.61,5.69a1.68,1.68,0,0,0,1.7,0l9.61-5.69m5.85-5.4L196.32,47,180,37.3l16.31,23.14L212.63,37.3h0Z" style="fill:#f78d1e"/><rect x="195.48" y="47.56" width="1.67" height="10.42" style="fill:#f78d1e"/><rect x="195.44" y="9.31" width="1.67" height="33.31" style="fill:#f78d1e"/><path d="M211.13,34.23a0.82,0.82,0,0,1-.34-0.08l-14.51-6.53-14.39,6.5a0.83,0.83,0,1,1-.68-1.52L195.93,26a0.82,0.82,0,0,1,.68,0l14.86,6.68A0.83,0.83,0,0,1,211.13,34.23Z" style="fill:#f78d1e"/><polygon points="186.4 141.32 183.27 141.32 183.27 108.1 194.75 97.17 194.75 66.23 197.88 66.23 197.88 98.51 186.4 109.44 186.4 141.32" style="fill:#f78d1e"/><path d="M184.84,151.56a5.64,5.64,0,1,1,5.64-5.64A5.65,5.65,0,0,1,184.84,151.56Zm0-9.2a3.56,3.56,0,1,0,3.55,3.55A3.56,3.56,0,0,0,184.84,142.36Z" style="fill:#f78d1e"/><path d="M149.73,107.64a7.61,7.61,0,1,1,7.62-7.61A7.62,7.62,0,0,1,149.73,107.64Zm0-13.13a5.52,5.52,0,1,0,5.53,5.53A5.53,5.53,0,0,0,149.73,94.5Z" style="fill:#f78d1e"/><rect x="148.17" y="106.04" width="3.13" height="35.54" style="fill:#f78d1e"/><path d="M149.74,151.56a5.64,5.64,0,1,1,5.64-5.64A5.65,5.65,0,0,1,149.74,151.56Zm0-9.2a3.56,3.56,0,1,0,3.56,3.55A3.56,3.56,0,0,0,149.74,142.36Z" style="fill:#f78d1e"/><path d="M211.55,331H26.76C12,331,0,319.37,0,305.13V176.34c0-14.24,12-25.82,26.76-25.82H211.55c14.76,0,26.76,11.59,26.76,25.82V305.13C238.31,319.37,226.3,331,211.55,331ZM26.76,154.68c-12.46,0-22.59,9.71-22.59,21.65V305.13c0,11.94,10.14,21.66,22.59,21.66H211.55c12.46,0,22.59-9.72,22.59-21.66V176.34c0-11.94-10.14-21.65-22.59-21.65H26.76Z" style="fill:#f78d1e"/><path d="M250.32,254.67a8.07,8.07,0,0,1-8.22,7.92H182.48a8.07,8.07,0,0,1-8.22-7.92V226.8a8.07,8.07,0,0,1,8.22-7.92h59.63a8.07,8.07,0,0,1,8.22,7.92v27.87Z" style="fill:#fff"/><path d="M242.11,264.67H182.48a10.17,10.17,0,0,1-10.3-10V226.8a10.17,10.17,0,0,1,10.3-10h59.63a10.17,10.17,0,0,1,10.3,10v27.87A10.17,10.17,0,0,1,242.11,264.67ZM182.48,221a6,6,0,0,0-6.13,5.83v27.87a6,6,0,0,0,6.13,5.83h59.63a6,6,0,0,0,6.13-5.83V226.8a6,6,0,0,0-6.13-5.83H182.48Z" style="fill:#f78d1e"/><path d="M196.7,247.07a6.35,6.35,0,1,1,6.55-6.34A6.46,6.46,0,0,1,196.7,247.07Zm0-10.6a4.26,4.26,0,1,0,4.46,4.26A4.37,4.37,0,0,0,196.7,236.47Z" style="fill:#f78d1e"/><path d="M145.85,258.13a9,9,0,1,1,9.27-9A9.13,9.13,0,0,1,145.85,258.13Zm0-15.83a6.88,6.88,0,1,0,7.19,6.87A7,7,0,0,0,145.85,242.3Z" style="fill:#f78d1e"/><path d="M97.77,286.08a9,9,0,1,1,9.27-9A9.13,9.13,0,0,1,97.77,286.08Zm0-15.83a6.88,6.88,0,1,0,7.18,6.87A7,7,0,0,0,97.77,270.25Z" style="fill:#f78d1e"/><polygon points="123.34 328.87 120.21 328.87 120.21 297.75 144.28 274.62 144.28 257.08 147.41 257.08 147.41 275.95 123.34 299.09 123.34 328.87" style="fill:#f78d1e"/><path d="M28,219.92A9,9,0,1,1,28,202,9,9,0,1,1,28,219.92Zm0-15.83a6.88,6.88,0,1,0,0,13.74A6.88,6.88,0,1,0,28,204.1Z" style="fill:#f78d1e"/><polygon points="53.64 328.87 50.51 328.87 50.51 272.51 26.44 249.36 26.44 218.88 29.57 218.88 29.57 248.03 53.64 271.18 53.64 328.87" style="fill:#f78d1e"/><rect x="96.2" y="285.04" width="3.13" height="44.87" style="fill:#f78d1e"/><path d="M72.37,262.6a9,9,0,1,1,9.27-9A9.12,9.12,0,0,1,72.37,262.6Zm0-15.83a6.88,6.88,0,1,0,7.19,6.87A7,7,0,0,0,72.37,246.77Z" style="fill:#f78d1e"/><rect x="70.8" y="261.56" width="3.13" height="67.31" style="fill:#f78d1e"/></svg>