<svg id="Layer_1" data-name="Layer 1" xmlns="http://www.w3.org/2000/svg" viewBox="0 0 503.29 418.21"><defs><style>.cls-1{fill:#f7f7f7;}.cls-2{fill:#5a5a5a;}.cls-3{fill:#f5f5f5;}.cls-4{fill:#fff;}.cls-5{fill:none;stroke:#fff;stroke-linecap:round;stroke-linejoin:round;stroke-width:0;}.cls-6{fill:#fb6;}.cls-7{fill:#737373;}.cls-8{fill:#fb8c00;}.cls-9{fill:#ffd299;}.cls-10{fill:#404040;}.cls-11{fill:#e5e5e5;}</style></defs><title>app-sketch</title><path class="cls-1" d="M729.42,444.08v-327c0-19.75-14-35.91-31.11-35.91H475.64c-17.11,0-31.11,16.16-31.11,35.91v327" transform="translate(-227.67 -32.23)"/><path class="cls-2" d="M730.92,444.08V139.48c0-7.33.09-14.67,0-22-0.23-19.25-13.1-37.68-33.59-37.81-31.3-.19-62.6,0-93.9,0H487.15c-3.55,0-7.11,0-10.67,0A31.35,31.35,0,0,0,453,90.17c-8.95,9.93-10,22.1-10,34.64V444.08a1.5,1.5,0,0,0,3,0V143.37c0-8.34,0-16.67,0-25,0.06-18.22,11.48-35.6,31-35.69,31.16-.14,62.33,0,93.49,0h115.3c3.75,0,7.5,0,11.25,0a29.11,29.11,0,0,1,24.29,12.9c6.85,9.93,6.55,20.82,6.55,32.12v316.4a1.5,1.5,0,0,0,3,0h0Z" transform="translate(-227.67 -32.23)"/><path class="cls-3" d="M685.38,81H462.71C445.6,81,432,97.32,432,117.07V131H716V117.07C716,97.32,702.49,81,685.38,81Z" transform="translate(-227.67 -32.23)"/><path class="cls-2" d="M685.38,79.66H465c-10.33,0-19.53,3.79-26.16,12-9.4,11.62-8.75,25.49-8.75,39.52a1.52,1.52,0,0,0,1.5,1.5H716.49a1.52,1.52,0,0,0,1.5-1.5c0-10,.83-20.24-3-29.71C710,89.13,698.93,80,685.38,79.66c-1.93,0-1.93,3,0,3,14.25,0.34,25.07,11.49,28.43,24.84,1.92,7.6,1.17,15.89,1.17,23.66l1.5-1.5H431.6l1.5,1.5c0-13.13-.87-26.43,7.87-37.4,6.08-7.63,14.52-11.1,24-11.1H685.38A1.5,1.5,0,0,0,685.38,79.66Z" transform="translate(-227.67 -32.23)"/><polyline class="cls-4" points="488.33 411.77 488.33 99.77 203.33 99.77 203.33 411.77"/><path class="cls-2" d="M718,444V131.5a1.52,1.52,0,0,0-1.5-1.5h-285a1.52,1.52,0,0,0-1.5,1.5V444a1.5,1.5,0,0,0,3,0V131.5l-1.5,1.5h285l-1.5-1.5V444a1.5,1.5,0,0,0,3,0h0Z" transform="translate(-227.67 -32.23)"/><line class="cls-5" x1="488.33" y1="98.77" x2="204.33" y2="98.77"/><path class="cls-6" d="M555.12,344h120.5C688.1,344,699,356.64,699,373.58v13c0,4.23-1.37,8.41-2.52,12.41h0s3.55,12.64,6.81,12.22c6.56-.83-7.85,7.14-11.67-3-4.11,5.58-9.78,8.74-16,8.74H555.12C542.64,417,532,403.53,532,386.59v-13C532,356.64,542.64,344,555.12,344Z" transform="translate(-227.67 -32.23)"/><rect class="cls-7" x="316.38" y="75.43" width="60" height="3" rx="1.5" ry="1.5"/><circle class="cls-8" cx="346.33" cy="205.1" r="70.72"/><path class="cls-9" d="M571.87,271.89v-8c-4.58-.08-9.32-1.5-12.09-3.48l1.9-5.29a21.06,21.06,0,0,0,11.38,3.4c5.61,0,9.4-3.24,9.4-7.74,0-4.34-3.08-7-8.93-9.4-8.06-3.16-13-6.79-13-13.67,0-6.56,4.66-11.53,11.93-12.72v-8h4.9v7.66a21.07,21.07,0,0,1,10.27,2.76l-2,5.21a19.09,19.09,0,0,0-10-2.69c-6.08,0-8.37,3.63-8.37,6.79,0,4.11,2.92,6.16,9.8,9,8.14,3.32,12.24,7.42,12.24,14.46,0,6.24-4.34,12.09-12.48,13.43v8.22h-5Z" transform="translate(-227.67 -32.23)"/><path class="cls-10" d="M558.93,362.56h-4.3V361h10.48v1.55h-4.33v12.6h-1.85v-12.6Z" transform="translate(-227.67 -32.23)"/><path class="cls-10" d="M566.47,360.25h1.85v6.34h0a3.42,3.42,0,0,1,1.32-1.3,3.8,3.8,0,0,1,1.89-.52c1.36,0,3.55.84,3.55,4.35v6h-1.85v-5.84c0-1.64-.61-3-2.35-3a2.65,2.65,0,0,0-2.48,1.85,2.23,2.23,0,0,0-.13.88v6.13h-1.85V360.25Z" transform="translate(-227.67 -32.23)"/><path class="cls-10" d="M583.76,375.16l-0.15-1.28h-0.06a3.78,3.78,0,0,1-3.11,1.51,2.9,2.9,0,0,1-3.11-2.92c0-2.46,2.18-3.8,6.11-3.78v-0.21a2.1,2.1,0,0,0-2.31-2.35,5.06,5.06,0,0,0-2.65.76l-0.42-1.22a6.31,6.31,0,0,1,3.34-.9c3.11,0,3.86,2.12,3.86,4.16v3.8a14.21,14.21,0,0,0,.17,2.44h-1.68ZM583.48,370c-2,0-4.3.31-4.3,2.29a1.64,1.64,0,0,0,1.74,1.76,2.53,2.53,0,0,0,2.46-1.7,1.92,1.92,0,0,0,.11-0.59V370Z" transform="translate(-227.67 -32.23)"/><path class="cls-10" d="M588.25,367.75c0-1,0-1.91-.08-2.75h1.64l0.1,1.68h0a3.74,3.74,0,0,1,3.36-1.91c1.41,0,3.59.84,3.59,4.32v6.07h-1.85V369.3c0-1.64-.61-3-2.35-3a2.62,2.62,0,0,0-2.48,1.89,2.65,2.65,0,0,0-.13.86v6.11h-1.85v-7.41Z" transform="translate(-227.67 -32.23)"/><path class="cls-10" d="M601.73,369.66h0c0.25-.36.61-0.8,0.9-1.16l3-3.51h2.23L604,369.18l4.47,6h-2.25l-3.51-4.87-0.95,1v3.82h-1.83V360.25h1.83v9.41Z" transform="translate(-227.67 -32.23)"/><path class="cls-10" d="M609.5,373.27a4.85,4.85,0,0,0,2.44.74c1.34,0,2-.67,2-1.51s-0.53-1.37-1.89-1.87c-1.83-.65-2.69-1.66-2.69-2.88,0-1.64,1.32-3,3.51-3a5.08,5.08,0,0,1,2.5.63l-0.46,1.34a4,4,0,0,0-2.08-.59,1.48,1.48,0,0,0-1.7,1.39c0,0.84.61,1.22,1.93,1.72,1.76,0.67,2.67,1.55,2.67,3.07,0,1.78-1.39,3-3.8,3a5.79,5.79,0,0,1-2.86-.69Z" transform="translate(-227.67 -32.23)"/><path class="cls-10" d="M622.71,375.16v-8.76h-1.43V365h1.43v-0.48a4.79,4.79,0,0,1,1.18-3.55,3.54,3.54,0,0,1,2.48-.95,4.27,4.27,0,0,1,1.58.29l-0.25,1.43a2.75,2.75,0,0,0-1.18-.23c-1.58,0-2,1.39-2,2.94V365H627v1.41h-2.46v8.76h-1.83Z" transform="translate(-227.67 -32.23)"/><path class="cls-10" d="M637.58,370c0,3.76-2.6,5.4-5.06,5.4-2.75,0-4.87-2-4.87-5.23,0-3.4,2.23-5.4,5-5.4S637.58,366.89,637.58,370Zm-8.06.1c0,2.23,1.28,3.91,3.09,3.91s3.09-1.66,3.09-3.95c0-1.72-.86-3.91-3-3.91S629.51,368.17,629.51,370.1Z" transform="translate(-227.67 -32.23)"/><path class="cls-10" d="M639.91,368.17c0-1.2,0-2.22-.08-3.17h1.62l0.06,2h0.08a3,3,0,0,1,2.81-2.22,2,2,0,0,1,.53.06v1.74a2.84,2.84,0,0,0-.63-0.06,2.59,2.59,0,0,0-2.48,2.37,5.19,5.19,0,0,0-.08.86v5.42h-1.83v-7Z" transform="translate(-227.67 -32.23)"/><path class="cls-10" d="M556.37,400.36v-8.76h-1.43V390.2h1.43v-0.48a4.79,4.79,0,0,1,1.18-3.55,3.53,3.53,0,0,1,2.48-.95,4.27,4.27,0,0,1,1.57.29l-0.25,1.43a2.74,2.74,0,0,0-1.18-.23c-1.57,0-2,1.39-2,2.94v0.55h2.46v1.41H558.2v8.76h-1.83Z" transform="translate(-227.67 -32.23)"/><path class="cls-10" d="M567.94,400.36l-0.15-1.28h-0.06a3.78,3.78,0,0,1-3.11,1.51,2.89,2.89,0,0,1-3.11-2.92c0-2.46,2.18-3.8,6.11-3.78v-0.21a2.09,2.09,0,0,0-2.31-2.35,5.06,5.06,0,0,0-2.65.76l-0.42-1.22a6.31,6.31,0,0,1,3.34-.9c3.11,0,3.86,2.12,3.86,4.16v3.8a14.41,14.41,0,0,0,.17,2.44h-1.68Zm-0.27-5.19c-2,0-4.3.31-4.3,2.29a1.63,1.63,0,0,0,1.74,1.76,2.53,2.53,0,0,0,2.46-1.7,2,2,0,0,0,.1-0.59v-1.76Z" transform="translate(-227.67 -32.23)"/><path class="cls-10" d="M572.19,398.47a4.84,4.84,0,0,0,2.44.74c1.34,0,2-.67,2-1.51s-0.52-1.37-1.89-1.87c-1.83-.65-2.69-1.66-2.69-2.88,0-1.64,1.32-3,3.51-3a5.07,5.07,0,0,1,2.5.63l-0.46,1.34a4,4,0,0,0-2.08-.59,1.48,1.48,0,0,0-1.7,1.39c0,0.84.61,1.22,1.93,1.72,1.76,0.67,2.67,1.55,2.67,3.07,0,1.78-1.39,3-3.8,3a5.8,5.8,0,0,1-2.86-.69Z" transform="translate(-227.67 -32.23)"/><path class="cls-10" d="M583,387.28v2.92h2.65v1.41H583v5.48c0,1.26.36,2,1.39,2a4.13,4.13,0,0,0,1.07-.13l0.08,1.39a4.51,4.51,0,0,1-1.64.25,2.56,2.56,0,0,1-2-.78,3.77,3.77,0,0,1-.71-2.65v-5.54H579.6V390.2h1.58v-2.44Z" transform="translate(-227.67 -32.23)"/><path class="cls-10" d="M599.4,400a6.8,6.8,0,0,1-2.92.59,4.83,4.83,0,0,1-5.06-5.19,5.16,5.16,0,0,1,5.46-5.4,6.18,6.18,0,0,1,2.56.52L599,391.94a4.28,4.28,0,0,0-2.14-.48,3.83,3.83,0,0,0-.06,7.64,5.26,5.26,0,0,0,2.27-.5Z" transform="translate(-227.67 -32.23)"/><path class="cls-10" d="M601.57,385.45h1.85v14.91h-1.85V385.45Z" transform="translate(-227.67 -32.23)"/><path class="cls-10" d="M612.15,400.36L612,399.08h-0.06a3.78,3.78,0,0,1-3.11,1.51,2.9,2.9,0,0,1-3.11-2.92c0-2.46,2.18-3.8,6.11-3.78v-0.21a2.1,2.1,0,0,0-2.31-2.35,5.06,5.06,0,0,0-2.65.76l-0.42-1.22a6.31,6.31,0,0,1,3.34-.9c3.11,0,3.86,2.12,3.86,4.16v3.8a14.21,14.21,0,0,0,.17,2.44h-1.68Zm-0.27-5.19c-2,0-4.3.31-4.3,2.29a1.64,1.64,0,0,0,1.74,1.76,2.53,2.53,0,0,0,2.46-1.7,1.92,1.92,0,0,0,.11-0.59v-1.76Z" transform="translate(-227.67 -32.23)"/><path class="cls-10" d="M618.7,387.34a1.14,1.14,0,0,1-2.29,0,1.13,1.13,0,0,1,1.15-1.15A1.1,1.1,0,0,1,618.7,387.34Zm-2.06,13V390.2h1.85v10.16h-1.85Z" transform="translate(-227.67 -32.23)"/><path class="cls-10" d="M621.56,392.95c0-1,0-1.91-.08-2.75h1.62l0.08,1.64h0.06a3.5,3.5,0,0,1,3.19-1.87,3,3,0,0,1,2.88,2h0a4.19,4.19,0,0,1,1.13-1.32,3.47,3.47,0,0,1,2.25-.71c1.34,0,3.34.88,3.34,4.41v6h-1.81v-5.75c0-2-.71-3.13-2.21-3.13a2.39,2.39,0,0,0-2.18,1.68,3,3,0,0,0-.15.92v6.28h-1.81v-6.09c0-1.62-.71-2.79-2.12-2.79a2.75,2.75,0,0,0-2.44,2.75v6.13h-1.81v-7.41Z" transform="translate(-227.67 -32.23)"/><path class="cls-10" d="M638.63,399.27a1.24,1.24,0,0,1,1.26-1.32A1.32,1.32,0,1,1,638.63,399.27Z" transform="translate(-227.67 -32.23)"/><path class="cls-1" d="M527.42,448.57V70.07c0-19.75-14-35.91-31.11-35.91H273.64c-17.11,0-31.11,16.16-31.11,35.91V447.64" transform="translate(-227.67 -32.23)"/><path class="cls-2" d="M528.92,448.57V74.09a71.54,71.54,0,0,0-.41-9.82c-2-14.77-12.59-29-28-31.28-10-1.47-20.76-.32-30.77-0.32H279.92a66.07,66.07,0,0,0-11.08.42c-15.65,2.67-26,17.52-27.57,32.61-0.74,7.09-.23,14.44-0.23,21.54v360.4a1.5,1.5,0,0,0,3,0V76c0-1.95,0-3.9,0-5.85,0.24-16.2,10.75-33.47,28.33-34.43,9.69-.53,19.53,0,29.22,0H489.67c3.7,0,7.62-.26,11.27.42,15.9,3,24.77,19,25,34.14,0.1,7,0,14,0,21V448.57a1.5,1.5,0,0,0,3,0h0Z" transform="translate(-227.67 -32.23)"/><path class="cls-3" d="M483.38,34H260.71C243.6,34,230,50.32,230,70.07V84H514V70.07C514,50.32,500.49,34,483.38,34Z" transform="translate(-227.67 -32.23)"/><path class="cls-2" d="M483.38,32.66H263c-10.33,0-19.53,3.79-26.16,12-9.4,11.62-8.75,25.49-8.75,39.52a1.52,1.52,0,0,0,1.5,1.5H514.49a1.52,1.52,0,0,0,1.5-1.5c0-10,.83-20.24-3-29.71C508,42.13,496.93,33,483.38,32.66c-1.93,0-1.93,3,0,3C497.63,36,508.45,47.15,511.81,60.5c1.92,7.6,1.17,15.89,1.17,23.66l1.5-1.5H229.6l1.5,1.5c0-13.13-.87-26.43,7.87-37.4,6.08-7.63,14.52-11.1,24-11.1H483.38A1.5,1.5,0,0,0,483.38,32.66Z" transform="translate(-227.67 -32.23)"/><polyline class="cls-4" points="286.33 416.77 286.33 52.77 1.33 52.77 1.33 415.77"/><path class="cls-2" d="M516,449V99.35c0-4.54.69-9.7,0-14.2a4.53,4.53,0,0,1,0-.66,1.52,1.52,0,0,0-1.5-1.5h-285a1.52,1.52,0,0,0-1.5,1.5V433.14c0,4.51-.75,9.75,0,14.21a4.18,4.18,0,0,1,0,.66,1.5,1.5,0,0,0,3,0V90.07c0-1.18.52-3.82,0-4.91a2.12,2.12,0,0,1,0-.66L229.5,86h285L513,84.5V434.15c0,4.5-.75,9.74,0,14.2a4.18,4.18,0,0,1,0,.66,1.5,1.5,0,0,0,3,0h0Z" transform="translate(-227.67 -32.23)"/><line class="cls-5" x1="286.33" y1="51.77" x2="2.33" y2="51.77"/><path class="cls-11" d="M411.26,111H277.53C263.68,111,252,121.59,252,135.44v10.64a26,26,0,0,0,2.38,9.93h0s-3.94,10.44-7.56,10.1c-7.28-.68,8.71,5.93,13-2.33A24.94,24.94,0,0,0,277.53,171H411.26C425.1,171,437,159.92,437,146.07V135.44C437,121.59,425.1,111,411.26,111Z" transform="translate(-227.67 -32.23)"/><path class="cls-11" d="M422.57,198H488c6.78,0,13,5.5,13,12.28v5.21a9.45,9.45,0,0,1-1.63,4.52h0s1.93,5.28,3.7,5.12c3.56-.33-4.26,3.14-6.34-0.9A12.43,12.43,0,0,1,488,228H422.57A12.73,12.73,0,0,1,410,215.48v-5.21A12.53,12.53,0,0,1,422.57,198Z" transform="translate(-227.67 -32.23)"/><path class="cls-11" d="M384.41,244H272.27C260.66,244,251,254.59,251,268.44v10.64a30.14,30.14,0,0,0,1.86,9.93h0s-3.3,10.44-6.34,10.1c-6.1-.68,7.3,5.93,10.87-2.33A19.34,19.34,0,0,0,272.27,304H384.41C396,304,406,292.92,406,279.07V268.44C406,254.59,396,244,384.41,244Z" transform="translate(-227.67 -32.23)"/><path class="cls-11" d="M419.57,320H485c6.78,0,13,5.5,13,12.28v5.21a9.45,9.45,0,0,1-1.63,4.52h0s1.93,5.28,3.7,5.12c3.56-.33-4.26,3.14-6.34-0.9A12.43,12.43,0,0,1,485,350H419.57A12.73,12.73,0,0,1,407,337.48v-5.21A12.53,12.53,0,0,1,419.57,320Z" transform="translate(-227.67 -32.23)"/><path class="cls-8" d="M335.39,362H262.66c-7.53,0-13.66,7.86-13.66,18v7.8a23.12,23.12,0,0,0,1.07,7.19h0s-2.14,7.7-4.11,7.45c-4-.5,4.74,4.32,7-1.73a12,12,0,0,0,9.67,5.28h72.73c7.53,0,13.61-8,13.61-18.19V380C349,369.86,342.93,362,335.39,362Z" transform="translate(-227.67 -32.23)"/><path class="cls-4" d="M277,378.9a24.91,24.91,0,0,1,3.7-.28c2.5,0,4.28.58,5.46,1.68a6.21,6.21,0,0,1,1.9,4.84,7.13,7.13,0,0,1-1.94,5.24c-1.26,1.26-3.34,1.94-6,1.94a28.18,28.18,0,0,1-3.16-.16V378.9Zm1.74,11.92a11,11,0,0,0,1.76.1c3.72,0,5.74-2.08,5.74-5.72,0-3.18-1.78-5.2-5.46-5.2a9.85,9.85,0,0,0-2,.18v10.64Z" transform="translate(-227.67 -32.23)"/><path class="cls-4" d="M299.08,387.28c0,3.58-2.48,5.14-4.82,5.14-2.62,0-4.64-1.92-4.64-5,0-3.24,2.12-5.14,4.8-5.14S299.08,384.32,299.08,387.28Zm-7.68.1c0,2.12,1.22,3.72,2.94,3.72s2.94-1.58,2.94-3.76c0-1.64-.82-3.72-2.9-3.72S291.4,385.54,291.4,387.38Z" transform="translate(-227.67 -32.23)"/><path class="cls-4" d="M301.3,385.14c0-1,0-1.82-.08-2.62h1.56l0.1,1.6h0a3.56,3.56,0,0,1,3.2-1.82c1.34,0,3.42.8,3.42,4.12v5.78h-1.76v-5.58c0-1.56-.58-2.86-2.24-2.86a2.5,2.5,0,0,0-2.36,1.8,2.53,2.53,0,0,0-.12.82v5.82H301.3v-7.06Z" transform="translate(-227.67 -32.23)"/><path class="cls-4" d="M313.38,387.68A3.1,3.1,0,0,0,316.7,391a6.36,6.36,0,0,0,2.68-.5l0.3,1.26a7.84,7.84,0,0,1-3.22.6c-3,0-4.76-2-4.76-4.88s1.72-5.22,4.54-5.22c3.16,0,4,2.78,4,4.56a6.68,6.68,0,0,1-.06.82h-6.8Zm5.16-1.26c0-1.12-.46-2.86-2.44-2.86-1.78,0-2.56,1.64-2.7,2.86h5.14Z" transform="translate(-227.67 -32.23)"/><path class="cls-4" d="M321.76,391.16a1.18,1.18,0,0,1,1.2-1.26A1.26,1.26,0,1,1,321.76,391.16Z" transform="translate(-227.67 -32.23)"/><rect class="cls-7" x="114.38" y="25.43" width="60" height="3" rx="1.5" ry="1.5"/></svg>