<svg id="Layer_1" data-name="Layer 1" xmlns="http://www.w3.org/2000/svg" viewBox="0 0 53.93 36.72"><title>coverage-accidental-damage</title><polyline points="18.25 30.83 15.78 35.9 13.09 30.93 8.41 34.09 8.57 28.44 2.93 28.84 5.9 24.03 0.82 21.55 5.79 18.87 2.63 14.18 8.28 14.35 7.89 8.71 12.7 11.67" style="fill:#fff"/><polygon points="15.79 36.73 12.96 31.48 8.01 34.81 8.18 28.85 2.23 29.26 5.36 24.18 0 21.57 5.25 18.73 1.92 13.79 7.88 13.96 7.46 8.01 12.89 11.35 12.5 11.99 8.31 9.41 8.69 14.73 3.35 14.58 6.33 19 1.64 21.53 6.43 23.87 3.64 28.41 8.96 28.04 8.8 33.37 13.22 30.39 15.76 35.08 17.92 30.66 18.59 30.99 15.79 36.73" style="fill:#f78d1e"/><polyline points="44.01 3.34 44.56 0.67 46.41 2.67 48.22 0.64 48.81 3.29 51.4 2.43 50.59 5.04 53.26 5.58 51.26 7.43 53.29 9.24 50.64 9.84 51.5 12.43 48.9 11.62" style="fill:#fff"/><polygon points="51.97 12.89 48.81 11.9 48.98 11.33 51.03 11.97 50.25 9.62 52.66 9.08 50.81 7.44 52.63 5.76 50.21 5.26 50.94 2.9 48.59 3.68 48.05 1.27 46.41 3.12 44.73 1.3 44.3 3.4 43.71 3.28 44.38 0.04 46.4 2.22 48.38 0 49.03 2.9 51.86 1.97 50.98 4.81 53.89 5.41 51.71 7.43 53.93 9.4 51.03 10.06 51.97 12.89" style="fill:#f78d1e"/><path d="M42,25.29H18.27a2.49,2.49,0,0,1-2.48-2.48V8a2.49,2.49,0,0,1,2.48-2.48h21l5.18,5V22.81A2.49,2.49,0,0,1,42,25.29ZM18.27,6a2,2,0,0,0-2,2V22.81a2,2,0,0,0,2,2H42a2,2,0,0,0,2-2v-12L39.1,6H18.27Z" style="fill:#f78d1e"/><path d="M24,20.69a5.27,5.27,0,1,1,5.27-5.27A5.28,5.28,0,0,1,24,20.69Zm0-10a4.77,4.77,0,1,0,4.77,4.77A4.78,4.78,0,0,0,24,10.64Z" style="fill:#f78d1e"/><path d="M26.32,19.93a5.29,5.29,0,0,1-2.53-4.57,4.79,4.79,0,0,0-2.29-4.14l0.25-.43a5.29,5.29,0,0,1,2.53,4.57,4.79,4.79,0,0,0,2.29,4.14Z" style="fill:#f78d1e"/><path d="M27.65,17.13a5.4,5.4,0,0,1-3.79-1.59,4.78,4.78,0,0,0-4.54-1.31l-0.12-.48a5.3,5.3,0,0,1,5,1.44,4.8,4.8,0,0,0,4.54,1.31L28.88,17A5,5,0,0,1,27.65,17.13Z" style="fill:#f78d1e"/><path d="M19.9,17.9l-0.43-.25A5.29,5.29,0,0,1,24,15.11a4.79,4.79,0,0,0,4.14-2.29l0.43,0.25A5.29,5.29,0,0,1,24,15.61,4.79,4.79,0,0,0,19.9,17.9Z" style="fill:#f78d1e"/><path d="M22.42,20.21a5.29,5.29,0,0,1,1.44-5,4.8,4.8,0,0,0,1.31-4.55l0.48-.12a5.3,5.3,0,0,1-1.44,5,4.79,4.79,0,0,0-1.31,4.54Z" style="fill:#f78d1e"/><path d="M36.23,20.69a5.27,5.27,0,1,1,5.27-5.27A5.28,5.28,0,0,1,36.23,20.69Zm0-10A4.77,4.77,0,1,0,41,15.42,4.78,4.78,0,0,0,36.23,10.64Z" style="fill:#f78d1e"/><path d="M38.52,19.93A5.29,5.29,0,0,1,36,15.36a4.79,4.79,0,0,0-2.29-4.14L34,10.79a5.29,5.29,0,0,1,2.53,4.57,4.79,4.79,0,0,0,2.29,4.14Z" style="fill:#f78d1e"/><path d="M39.85,17.13a5.4,5.4,0,0,1-3.79-1.59,4.79,4.79,0,0,0-4.54-1.31l-0.12-.48a5.3,5.3,0,0,1,5,1.44A4.8,4.8,0,0,0,41,16.5L41.08,17A5,5,0,0,1,39.85,17.13Z" style="fill:#f78d1e"/><path d="M32.1,17.9l-0.43-.25a5.29,5.29,0,0,1,4.57-2.53,4.79,4.79,0,0,0,4.14-2.29l0.43,0.25a5.29,5.29,0,0,1-4.57,2.53A4.79,4.79,0,0,0,32.1,17.9Z" style="fill:#f78d1e"/><path d="M34.62,20.21a5.29,5.29,0,0,1,1.44-5,4.79,4.79,0,0,0,1.31-4.55l0.48-.12a5.3,5.3,0,0,1-1.44,5,4.79,4.79,0,0,0-1.31,4.54Z" style="fill:#f78d1e"/><polygon points="44.48 23.07 43.98 23.07 43.98 5.65 46.93 5.59 46.94 6.09 44.48 6.14 44.48 23.07" style="fill:#f78d1e"/><path d="M45.27,21.66h-1v-0.5h1a0.49,0.49,0,0,0,.49-0.49V16.85a0.49,0.49,0,0,0-.49-0.49h-1v-0.5h1a1,1,0,0,1,1,1v3.82A1,1,0,0,1,45.27,21.66Z" style="fill:#f78d1e"/><path d="M44.84,12.83H44.23v-0.5h0.61a0.49,0.49,0,0,0,.49-0.49V10.65a0.49,0.49,0,0,0-.49-0.49H44.23V9.66h0.61a1,1,0,0,1,1,1v1.19A1,1,0,0,1,44.84,12.83Z" style="fill:#f78d1e"/></svg>