<svg id="Layer_1" data-name="Layer 1" xmlns="http://www.w3.org/2000/svg" viewBox="0 0 29.57 30.48"><title>coverage-theft</title><path d="M12.45,19.23c-3.34,0-6.05-2.44-6.05-5.43v-3H7.14v3c0,2.58,2.38,4.68,5.3,4.68s5.3-2.1,5.3-4.68v-3H18.5v3C18.5,16.79,15.78,19.23,12.45,19.23Z" style="fill:#f78d1e"/><path d="M12.45,12c-4.84,0-10-1.16-10-3.3,0-1.14,1.47-2.1,4.15-2.71L6.78,6.74c-2.63.6-3.57,1.44-3.57,2,0,1.21,3.79,2.55,9.24,2.55s9.24-1.34,9.24-2.55c0-.53-0.92-1.36-3.5-2L18.35,6C21,6.63,22.43,7.59,22.43,8.71,22.43,10.86,17.29,12,12.45,12Z" style="fill:#f78d1e"/><path d="M12.45,10.25c-3.05,0-6.34-.69-6.34-2.2,0-.73.51-6.94,2.81-7.85a2.67,2.67,0,0,1,1-.2,3.31,3.31,0,0,1,1.64.53,2.06,2.06,0,0,0,.89.34A2.06,2.06,0,0,0,13.34.53,3.31,3.31,0,0,1,15,0a2.71,2.71,0,0,1,1,.2C18.27,1.1,18.74,7.32,18.78,8,18.78,9.56,15.5,10.25,12.45,10.25ZM9.91,0.75A2,2,0,0,0,9.19.9C7.62,1.52,7,6.29,6.86,8.07,6.86,8.65,9,9.5,12.45,9.5S18,8.65,18,8C17.92,6.29,17.28,1.52,15.7.9a2.2,2.2,0,0,0-2,.29,2.64,2.64,0,0,1-1.25.43,2.64,2.64,0,0,1-1.25-.43A2.64,2.64,0,0,0,9.91.75Z" style="fill:#f78d1e"/><path d="M12.39,11.67A35.69,35.69,0,0,0,18,11v2.28S15.76,15.14,15,15.2s-2.58-1.27-2.58-1.27S10.6,15.25,9.81,15.2s-3.07-1.91-3.07-1.91V11A35.68,35.68,0,0,0,12.39,11.67Z" style="fill:#f78d1e"/><path d="M10.86,13.81l-0.18,0L8.8,13.32a0.75,0.75,0,0,1,.36-1.46L11,12.33A0.75,0.75,0,0,1,10.86,13.81Z" style="fill:#fff"/><path d="M14,13.81a0.75,0.75,0,0,1-.18-1.48l1.88-.46a0.75,0.75,0,0,1,.36,1.46l-1.88.46Z" style="fill:#fff"/><path d="M23.5,30.48H1.75l-0.08-.26c-0.09-.27-2.11-6.63-1.57-8.8,0.42-1.68,2.58-2.34,3.82-2.58L2.15,17.4,6.86,15,7.2,15.69,3.52,17.55l2.24,1.83-0.92.08s-3.56.32-4,2.14c-0.39,1.56.86,6.17,1.48,8.13H23c0.61-2,1.86-6.57,1.48-8.13a2.88,2.88,0,0,0-2-1.67l0.26-.71a3.41,3.41,0,0,1,2.43,2.2c0.54,2.17-1.48,8.53-1.57,8.8Z" style="fill:#f78d1e"/><rect x="19.44" y="13.95" width="0.75" height="4.59" transform="translate(-3.35 27.2) rotate(-64.67)" style="fill:#f78d1e"/><path d="M20.13,28.15H20.08a21.53,21.53,0,0,1-2.84-.64,11.31,11.31,0,0,1-2.57-1.41,0.89,0.89,0,0,1-.52-1.1l1.35-4.15a0.9,0.9,0,0,1,1.12-.57l1.7,0.55-0.1.31a2.39,2.39,0,0,0,1.27,1.4,1.13,1.13,0,0,0,1.45-.21,1.07,1.07,0,0,1,.72-0.4l0.1,0,0.42,0.14a0.89,0.89,0,0,1,.57,1.12l-1.35,4.15A1.32,1.32,0,0,1,20.13,28.15Zm-3.75-7.26a0.25,0.25,0,0,0-.27.16L14.76,25.2a0.24,0.24,0,0,0,.15.31l0.09,0a11.06,11.06,0,0,0,2.43,1.34,21.73,21.73,0,0,0,2.7.61h0a0.72,0.72,0,0,0,.66-0.34L22.15,23a0.24,0.24,0,0,0,0-.19A0.24,0.24,0,0,0,22,22.71l-0.34-.11a1,1,0,0,0-.24.19,1.82,1.82,0,0,1-2.11.37,2.87,2.87,0,0,1-1.51-1.42,2,2,0,0,1-.17-0.46l-1.18-.39h0Z" style="fill:#f78d1e"/><rect x="1.17" y="26.33" width="14.76" height="0.65" transform="translate(-11.47 7.09) rotate(-27.87)" style="fill:#f78d1e"/><rect x="16.13" y="28.64" width="4.03" height="0.65" transform="translate(-13.18 15.3) rotate(-34.36)" style="fill:#f78d1e"/><path d="M20.78,25a3.72,3.72,0,0,1-.86-0.1l0.15-.63a2.76,2.76,0,0,0,1.8-.14l0.31,0.57A3.15,3.15,0,0,1,20.78,25Z" style="fill:#f78d1e"/><path d="M20.36,26.41a3.71,3.71,0,0,1-.86-0.1l0.15-.63a2.76,2.76,0,0,0,1.8-.14l0.31,0.57A3.15,3.15,0,0,1,20.36,26.41Z" style="fill:#f78d1e"/><path d="M20.38,23.16l-0.53-.38,6.07-8.29c0.63-.85,1.9-0.41,2.79.13l0.16-1.09-1.7-1.27c-0.23-.17-0.76.08-1.41,0.67A14.17,14.17,0,0,0,24.1,14.8L18.72,22l-0.52-.39,5.39-7.23a14.79,14.79,0,0,1,1.73-2c1-.87,1.7-1.1,2.24-0.71l2,1.5L29.2,15.75l-0.44-.33c-0.46-.34-1.86-1.17-2.32-0.56Z" style="fill:#f78d1e"/></svg>