<svg id="Layer_1" data-name="Layer 1" xmlns="http://www.w3.org/2000/svg" viewBox="0 0 590.39 590.39"><title>microassure-logo</title><path d="M299.45,113.51c34.88,1.81,71.91,9.88,104,33,35.06,25.27,55.33,59.85,61.27,102.66a86.66,86.66,0,0,1,.8,20.89c-0.8,7.45-5.59,9.17-11.93,4.87-4.19-2.84-7.81-6.51-11.73-9.75-11.87-9.82-25.46-16-40.9-15.88-16.37.13-30,7.3-41,19.49-1.54,1.71-3,3.52-4.58,5.16-5,5.06-8.95,4.72-13.73-.5-4.3-4.7-8.54-9.68-13.63-13.4-23-16.85-55.6-13.12-74.55,8.12-2.19,2.45-4.43,4.86-6.77,7.16-3.11,3.07-6.43,3-9.61.13a49.71,49.71,0,0,1-4.39-4.65,60.12,60.12,0,0,0-85.85-6.17,102.52,102.52,0,0,0-8.65,8.74c-2.45,2.72-5.57,5.54-8.79,3.56-2.46-1.51-4.55-5.43-4.76-8.42a90.73,90.73,0,0,1,.89-19.12c5.16-35.68,20.69-66.14,47-90.89,19.68-18.54,43.4-29.72,69.17-37.08C259.32,116.42,277.23,113.86,299.45,113.51Z" style="fill:#fb8c00;fill-rule:evenodd"/><path d="M304.08,456.16c-0.62,26,18.4,40.2,40.19,42.35,10.86,1.07,21.72.32,31.61-5.12,13.23-7.28,20.82-17.95,20.72-33.67,0-11.75-.08,8.7,0-22.69,0-8.86,3.74-13.16,11.1-13,6.17,0.14,9.65,4,9.7,11.11,0.08,11.5.06,13.8,0.06,22.69,0,38.44-28,55.8-55.07,58.89-15.55,1.77-30.56.36-44.69-6.18-21.72-10-33.74-26.68-33.64-51.43,0.21-50.61,0-139.23,0-189.84,0-8.68,7.85-13.45,15.3-9.48,3.62,1.93,4.85,5.08,4.85,9C304.14,286.7,304.65,432.19,304.08,456.16Z" style="fill:#fb8c00;fill-rule:evenodd"/><path d="M295.2,590.39A295.2,295.2,0,0,1,86.46,86.46,295.2,295.2,0,1,1,503.93,503.93,293.26,293.26,0,0,1,295.2,590.39ZM295.2,10C137.94,10,10,137.94,10,295.2s127.94,285.2,285.2,285.2,285.2-127.94,285.2-285.2S452.45,10,295.2,10Z" style="fill:#fb8c00"/><polygon points="58.78 388.84 54.78 388.84 54.78 303.15 69.36 285.78 69.36 111.47 73.36 111.47 73.36 287.24 58.78 304.61 58.78 388.84" style="fill:#fb8c00"/><path d="M56.79,410.17A11.67,11.67,0,1,1,68.45,398.5,11.68,11.68,0,0,1,56.79,410.17Zm0-19.33a7.67,7.67,0,1,0,7.67,7.67A7.67,7.67,0,0,0,56.79,390.84Z" style="fill:#fb8c00"/><rect x="26.03" y="181.71" width="4" height="72.16" style="fill:#fb8c00"/><path d="M28,275.21A11.67,11.67,0,1,1,39.7,263.54,11.68,11.68,0,0,1,28,275.21Zm0-19.33a7.67,7.67,0,1,0,7.67,7.67A7.68,7.68,0,0,0,28,255.88Z" style="fill:#fb8c00"/><rect x="103.18" y="77.17" width="4" height="130.96" style="fill:#fb8c00"/><path d="M105.18,229.46a11.67,11.67,0,1,1,11.67-11.67A11.68,11.68,0,0,1,105.18,229.46Zm0-19.33a7.67,7.67,0,1,0,7.67,7.67A7.68,7.68,0,0,0,105.18,210.13Z" style="fill:#fb8c00"/><rect x="127.52" y="57.84" width="4" height="72.96" style="fill:#fb8c00"/><path d="M129.52,152.13a11.67,11.67,0,1,1,11.67-11.67A11.68,11.68,0,0,1,129.52,152.13Zm0-19.33a7.67,7.67,0,1,0,7.67,7.67A7.68,7.68,0,0,0,129.52,132.8Z" style="fill:#fb8c00"/><rect x="204.37" y="18.85" width="4" height="62.38" style="fill:#fb8c00"/><path d="M206.37,102.56A11.67,11.67,0,1,1,218,90.9,11.68,11.68,0,0,1,206.37,102.56Zm0-19.33A7.67,7.67,0,1,0,214,90.9,7.68,7.68,0,0,0,206.37,83.23Z" style="fill:#fb8c00"/><rect x="247.77" y="8.29" width="4" height="39.57" style="fill:#fb8c00"/><path d="M249.77,69.2a11.67,11.67,0,1,1,11.67-11.67A11.68,11.68,0,0,1,249.77,69.2Zm0-19.33a7.67,7.67,0,1,0,7.67,7.67A7.68,7.68,0,0,0,249.77,49.87Z" style="fill:#fb8c00"/><rect x="397.86" y="23.75" width="4" height="87.72" style="fill:#fb8c00"/><path d="M399.86,132.81a11.67,11.67,0,1,1,11.67-11.67A11.68,11.68,0,0,1,399.86,132.81Zm0-19.33a7.67,7.67,0,1,0,7.67,7.67A7.68,7.68,0,0,0,399.86,113.48Z" style="fill:#fb8c00"/><rect x="355.86" y="11.79" width="4" height="59.97" style="fill:#fb8c00"/><path d="M357.86,93.09a11.67,11.67,0,1,1,11.67-11.67A11.68,11.68,0,0,1,357.86,93.09Zm0-19.33a7.67,7.67,0,1,0,7.67,7.67A7.68,7.68,0,0,0,357.86,73.76Z" style="fill:#fb8c00"/><rect x="436.15" y="41.38" width="4" height="72.81" style="fill:#fb8c00"/><path d="M438.15,135.52a11.67,11.67,0,1,1,11.67-11.67A11.68,11.68,0,0,1,438.15,135.52Zm0-19.33a7.67,7.67,0,1,0,7.67,7.67A7.68,7.68,0,0,0,438.15,116.19Z" style="fill:#fb8c00"/><rect x="543.86" y="150.13" width="4" height="145.06" style="fill:#fb8c00"/><path d="M545.86,316.53a11.67,11.67,0,1,1,11.67-11.67A11.68,11.68,0,0,1,545.86,316.53Zm0-19.33a7.67,7.67,0,1,0,7.67,7.67A7.67,7.67,0,0,0,545.86,297.2Z" style="fill:#fb8c00"/><rect x="26.03" y="314.53" width="4" height="93.64" style="fill:#fb8c00"/><path d="M28,316.53A11.67,11.67,0,1,1,39.7,304.86,11.68,11.68,0,0,1,28,316.53Zm0-19.33a7.67,7.67,0,1,0,7.67,7.67A7.68,7.68,0,0,0,28,297.2Z" style="fill:#fb8c00"/><rect x="88.7" y="432.17" width="4" height="68.92" style="fill:#fb8c00"/><path d="M90.7,434.17a11.67,11.67,0,1,1,11.67-11.67A11.68,11.68,0,0,1,90.7,434.17Zm0-19.33a7.67,7.67,0,1,0,7.67,7.67A7.68,7.68,0,0,0,90.7,414.83Z" style="fill:#fb8c00"/><rect x="505.74" y="417.84" width="4" height="74.94" style="fill:#fb8c00"/><path d="M507.74,419.84a11.67,11.67,0,1,1,11.67-11.67A11.68,11.68,0,0,1,507.74,419.84Zm0-19.33a7.67,7.67,0,1,0,7.67,7.67A7.68,7.68,0,0,0,507.74,400.5Z" style="fill:#fb8c00"/><rect x="543.86" y="347.61" width="4" height="94.89" style="fill:#fb8c00"/><path d="M545.86,349.61a11.67,11.67,0,1,1,11.67-11.67A11.68,11.68,0,0,1,545.86,349.61Zm0-19.33a7.67,7.67,0,1,0,7.67,7.67A7.68,7.68,0,0,0,545.86,330.28Z" style="fill:#fb8c00"/><rect x="112.85" y="339.25" width="4" height="183.92" style="fill:#fb8c00"/><path d="M114.85,341.25a11.67,11.67,0,1,1,11.67-11.67A11.68,11.68,0,0,1,114.85,341.25Zm0-19.33a7.67,7.67,0,1,0,7.67,7.67A7.68,7.68,0,0,0,114.85,321.91Z" style="fill:#fb8c00"/><polygon points="507.36 346.84 503.36 346.84 503.36 223.23 488.79 205.86 488.79 80.82 492.79 80.82 492.79 204.4 507.36 221.78 507.36 346.84" style="fill:#fb8c00"/><path d="M505.36,368.17A11.67,11.67,0,1,1,517,356.5,11.68,11.68,0,0,1,505.36,368.17Zm0-19.33A7.67,7.67,0,1,0,513,356.5,7.67,7.67,0,0,0,505.36,348.84Z" style="fill:#fb8c00"/></svg>