<svg id="Layer_1" data-name="Layer 1" xmlns="http://www.w3.org/2000/svg" viewBox="0 0 332.34 443.76"><title>world-map-1</title><circle cx="9.48" cy="168.07" r="3.33" style="fill:#bbbdbf"/><line x1="9.49" y1="168.07" x2="19.63" y2="168.07" style="fill:none;stroke:#bbbdbf;stroke-miterlimit:10"/><circle cx="3.33" cy="158.01" r="3.33" style="fill:#bbbdbf"/><line x1="3.33" y1="158.01" x2="18.02" y2="158.01" style="fill:none;stroke:#bbbdbf;stroke-miterlimit:10"/><circle cx="9.67" cy="147.95" r="3.33" style="fill:#bbbdbf"/><line x1="9.67" y1="147.95" x2="19.93" y2="147.95" style="fill:none;stroke:#bbbdbf;stroke-miterlimit:10"/><circle cx="198.57" cy="374.49" r="3.33" style="fill:#bbbdbf"/><line x1="198.57" y1="374.49" x2="208.72" y2="374.49" style="fill:none;stroke:#bbbdbf;stroke-miterlimit:10"/><circle cx="192.41" cy="364.43" r="3.33" style="fill:#bbbdbf"/><line x1="192.42" y1="364.43" x2="205.98" y2="364.43" style="fill:none;stroke:#bbbdbf;stroke-miterlimit:10"/><circle cx="198.75" cy="354.36" r="3.33" style="fill:#bbbdbf"/><line x1="198.75" y1="354.36" x2="209.01" y2="354.36" style="fill:none;stroke:#bbbdbf;stroke-miterlimit:10"/><circle cx="30" cy="81.72" r="3.33" style="fill:#bbbdbf"/><circle cx="22" cy="89.72" r="3.33" style="fill:#bbbdbf"/><circle cx="158.67" cy="15.43" r="3.33" style="fill:#bbbdbf"/><circle cx="169.17" cy="22.43" r="3.33" style="fill:#bbbdbf"/><circle cx="179" cy="28.1" r="3.33" style="fill:#bbbdbf"/><circle cx="192.34" cy="50.93" r="3.33" style="fill:#bbbdbf"/><circle cx="203" cy="62.48" r="3.33" style="fill:#bbbdbf"/><circle cx="255.34" cy="17.26" r="3.33" style="fill:#bbbdbf"/><circle cx="287.38" cy="9.29" r="3.33" style="fill:#bbbdbf"/><circle cx="317.23" cy="28.95" r="3.33" style="fill:#bbbdbf"/><circle cx="329.01" cy="37.26" r="3.33" style="fill:#bbbdbf"/><circle cx="324.06" cy="56.25" r="3.33" style="fill:#bbbdbf"/><circle cx="316.89" cy="64.75" r="3.33" style="fill:#bbbdbf"/><circle cx="298.8" cy="93.61" r="3.33" style="fill:#bbbdbf"/><circle cx="213.51" cy="15.43" r="3.33" style="fill:#bbbdbf"/><circle cx="120.75" cy="88.39" r="3.33" style="fill:#bbbdbf"/><circle cx="158.67" cy="65.28" r="3.33" style="fill:#bbbdbf"/><circle cx="179" cy="75.28" r="3.33" style="fill:#bbbdbf"/><circle cx="192.34" cy="65.43" r="3.33" style="fill:#bbbdbf"/><circle cx="213.95" cy="72.09" r="3.33" style="fill:#bbbdbf"/><circle cx="213.95" cy="86.76" r="3.33" style="fill:#bbbdbf"/><circle cx="140.32" cy="122.06" r="3.33" style="fill:#bbbdbf"/><circle cx="182.34" cy="143.85" r="3.33" style="fill:#bbbdbf"/><circle cx="195" cy="142.88" r="3.33" style="fill:#bbbdbf"/><circle cx="68.48" cy="115.37" r="3.33" style="fill:#bbbdbf"/><circle cx="80.34" cy="162.58" r="3.33" style="fill:#bbbdbf"/><circle cx="80.34" cy="147.59" r="3.33" style="fill:#bbbdbf"/><circle cx="99.84" cy="201.1" r="3.33" style="fill:#bbbdbf"/><circle cx="103.17" cy="213.25" r="3.33" style="fill:#bbbdbf"/><circle cx="153" cy="238.08" r="3.33" style="fill:#bbbdbf"/><circle cx="184.5" cy="197.76" r="3.33" style="fill:#bbbdbf"/><circle cx="192.34" cy="186.59" r="3.33" style="fill:#bbbdbf"/><circle cx="235.5" cy="157.38" r="3.33" style="fill:#bbbdbf"/><circle cx="197.62" cy="205.44" r="3.33" style="fill:#bbbdbf"/><circle cx="228.17" cy="128.09" r="3.33" style="fill:#bbbdbf"/><circle cx="255.34" cy="112.76" r="3.33" style="fill:#bbbdbf"/><circle cx="287.63" cy="94.44" r="3.33" style="fill:#bbbdbf"/><circle cx="181.73" cy="217.94" r="3.33" style="fill:#bbbdbf"/><circle cx="192.14" cy="257.12" r="3.33" style="fill:#bbbdbf"/><circle cx="170.34" cy="226.06" r="3.33" style="fill:#bbbdbf"/><circle cx="175.09" cy="240.02" r="3.33" style="fill:#bbbdbf"/><circle cx="161.97" cy="262.09" r="3.33" style="fill:#bbbdbf"/><circle cx="175.09" cy="254.59" r="3.33" style="fill:#bbbdbf"/><circle cx="174.5" cy="269.93" r="3.33" style="fill:#bbbdbf"/><circle cx="167.01" cy="291.14" r="3.33" style="fill:#bbbdbf"/><circle cx="208.76" cy="253.3" r="3.33" style="fill:#bbbdbf"/><circle cx="186.34" cy="293.3" r="3.33" style="fill:#bbbdbf"/><circle cx="73.57" cy="183.8" r="3.33" style="fill:#bbbdbf"/><circle cx="177.84" cy="315.76" r="3.33" style="fill:#bbbdbf"/><circle cx="181.8" cy="333.93" r="3.33" style="fill:#bbbdbf"/><circle cx="98.83" cy="89.72" r="3.33" style="fill:#bbbdbf"/><circle cx="237.56" cy="339.93" r="3.33" style="fill:#bbbdbf"/><circle cx="201.71" cy="440.43" r="3.33" style="fill:#bbbdbf"/><circle cx="256.21" cy="343.26" r="3.33" style="fill:#bbbdbf"/><circle cx="266.44" cy="336.01" r="3.33" style="fill:#bbbdbf"/><circle cx="279.68" cy="322.43" r="3.33" style="fill:#bbbdbf"/><circle cx="213.51" cy="58.37" r="3.33" style="fill:#bbbdbf"/><path d="M5.42,111.48V89.67a3.33,3.33,0,1,0-1,0v21.81A3.33,3.33,0,1,0,5.42,111.48Z" style="fill:#bbbdbf"/><path d="M87.5,203.34V181.54a3.33,3.33,0,1,0-1,0v21.81A3.33,3.33,0,1,0,87.5,203.34Z" style="fill:#bbbdbf"/><polyline points="18.38 97.84 70.38 97.84 77 106.4" style="fill:none;stroke:#bbbdbf;stroke-miterlimit:10"/><polyline points="25.05 106.81 61.86 106.81 68.48 115.37" style="fill:none;stroke:#bbbdbf;stroke-miterlimit:10"/><polyline points="22 89.72 74.92 89.72 91.42 108.09 91.42 137.93 80.34 147.59" style="fill:none;stroke:#bbbdbf;stroke-miterlimit:10"/><circle cx="27.12" cy="125.4" r="3.33" style="fill:#bbbdbf"/><circle cx="38.46" cy="118.66" r="3.33" style="fill:#bbbdbf"/><circle cx="49.29" cy="118.66" r="3.33" style="fill:#bbbdbf"/><circle cx="59.93" cy="124.83" r="3.33" style="fill:#bbbdbf"/><line x1="38.45" y1="118.66" x2="38.45" y2="133.82" style="fill:none;stroke:#bbbdbf;stroke-miterlimit:10"/><line x1="49.29" y1="118.66" x2="49.29" y2="133.29" style="fill:none;stroke:#bbbdbf;stroke-miterlimit:10"/><line x1="59.93" y1="124.83" x2="59.93" y2="138.73" style="fill:none;stroke:#bbbdbf;stroke-miterlimit:10"/><circle cx="94.83" cy="14.6" r="3.33" style="fill:#bbbdbf"/><circle cx="105.66" cy="8.23" r="3.33" style="fill:#bbbdbf"/><circle cx="116.31" cy="13.93" r="3.33" style="fill:#bbbdbf"/><line x1="94.83" y1="14.59" x2="94.83" y2="26.07" style="fill:none;stroke:#bbbdbf;stroke-miterlimit:10"/><line x1="105.66" y1="8.23" x2="105.66" y2="23.94" style="fill:none;stroke:#bbbdbf;stroke-miterlimit:10"/><line x1="116.31" y1="13.93" x2="116.31" y2="26.07" style="fill:none;stroke:#bbbdbf;stroke-miterlimit:10"/><line x1="27.12" y1="124.83" x2="27.12" y2="138.73" style="fill:none;stroke:#bbbdbf;stroke-miterlimit:10"/><circle cx="27.12" cy="191.88" r="3.33" style="fill:#bbbdbf"/><circle cx="38.46" cy="198.3" r="3.33" style="fill:#bbbdbf"/><circle cx="49.29" cy="198.3" r="3.33" style="fill:#bbbdbf"/><circle cx="59.93" cy="191.88" r="3.33" style="fill:#bbbdbf"/><line x1="38.45" y1="198.3" x2="38.45" y2="183.14" style="fill:none;stroke:#bbbdbf;stroke-miterlimit:10"/><line x1="49.29" y1="198.3" x2="49.29" y2="183.66" style="fill:none;stroke:#bbbdbf;stroke-miterlimit:10"/><line x1="59.93" y1="191.88" x2="59.93" y2="178.23" style="fill:none;stroke:#bbbdbf;stroke-miterlimit:10"/><line x1="27.12" y1="192.44" x2="27.12" y2="178.23" style="fill:none;stroke:#bbbdbf;stroke-miterlimit:10"/><circle cx="43.53" cy="158.22" r="25.58" style="fill:none;stroke:#bbbdbf;stroke-miterlimit:10"/><rect x="34.65" y="142.03" width="17.75" height="32.38" rx="4.25" ry="4.25" style="fill:none;stroke:#f69321;stroke-miterlimit:10;stroke-width:0.75px"/><line x1="34.65" y1="146.72" x2="52.4" y2="146.72" style="fill:none;stroke:#f69321;stroke-miterlimit:10;stroke-width:0.75px"/><line x1="41.93" y1="144.6" x2="45.12" y2="144.6" style="fill:none;stroke:#f69321;stroke-miterlimit:10;stroke-width:0.5px"/><line x1="42.4" y1="171.1" x2="44.65" y2="171.1" style="fill:none;stroke:#f69321;stroke-miterlimit:10;stroke-width:0.5px"/><line x1="34.65" y1="168.78" x2="52.4" y2="168.78" style="fill:none;stroke:#f69321;stroke-miterlimit:10;stroke-width:0.75px"/><rect x="39.09" y="156.47" width="8.87" height="8.31" style="fill:none;stroke:#f69321;stroke-miterlimit:10;stroke-width:0.75px"/><rect x="40.84" y="158.22" width="5.37" height="2.06" style="fill:none;stroke:#f69321;stroke-miterlimit:10;stroke-width:0.5px"/><line x1="42.71" y1="158.22" x2="42.71" y2="160.28" style="fill:none;stroke:#f69321;stroke-miterlimit:10;stroke-width:0.5px"/><line x1="44.65" y1="158.22" x2="44.65" y2="160.28" style="fill:none;stroke:#f69321;stroke-miterlimit:10;stroke-width:0.5px"/><path d="M46.85,156.47V152.7c0-1.28-1.41-2.31-3.33-2.31s-3.33,1-3.33,2.31v3.77" style="fill:none;stroke:#f69321;stroke-miterlimit:10;stroke-width:0.75px"/><line x1="80.34" y1="147.59" x2="66.8" y2="147.59" style="fill:none;stroke:#bbbdbf;stroke-miterlimit:10"/><line x1="80.34" y1="162.58" x2="69.11" y2="162.58" style="fill:none;stroke:#bbbdbf;stroke-miterlimit:10"/><polyline points="30 81.72 80.34 81.72 100.1 105.93 100.1 201.09" style="fill:none;stroke:#bbbdbf;stroke-miterlimit:10"/><line x1="109.17" y1="111.43" x2="109.17" y2="80.1" style="fill:none;stroke:#bbbdbf;stroke-miterlimit:10"/><polyline points="103.69 213.25 109.17 207.76 109.17 118.09" style="fill:none;stroke:#bbbdbf;stroke-miterlimit:10"/><line x1="120.75" y1="169.76" x2="120.75" y2="201.1" style="fill:none;stroke:#bbbdbf;stroke-miterlimit:10"/><line x1="120.75" y1="88.39" x2="120.75" y2="163.09" style="fill:none;stroke:#bbbdbf;stroke-miterlimit:10"/><circle cx="142.19" cy="61.95" r="3.33" style="fill:#bbbdbf"/><line x1="142.19" y1="61.95" x2="132.04" y2="61.95" style="fill:none;stroke:#bbbdbf;stroke-miterlimit:10"/><circle cx="148.34" cy="51.89" r="3.33" style="fill:#bbbdbf"/><line x1="148.34" y1="51.89" x2="133.65" y2="51.89" style="fill:none;stroke:#bbbdbf;stroke-miterlimit:10"/><circle cx="142" cy="41.82" r="3.33" style="fill:#bbbdbf"/><line x1="142" y1="41.82" x2="131.74" y2="41.82" style="fill:none;stroke:#bbbdbf;stroke-miterlimit:10"/><circle cx="68.63" cy="61.95" r="3.33" style="fill:#bbbdbf"/><line x1="68.63" y1="61.95" x2="78.78" y2="61.95" style="fill:none;stroke:#bbbdbf;stroke-miterlimit:10"/><circle cx="62.48" cy="51.89" r="3.33" style="fill:#bbbdbf"/><line x1="62.48" y1="51.89" x2="77.16" y2="51.89" style="fill:none;stroke:#bbbdbf;stroke-miterlimit:10"/><circle cx="68.81" cy="41.82" r="3.33" style="fill:#bbbdbf"/><line x1="68.81" y1="41.82" x2="79.08" y2="41.82" style="fill:none;stroke:#bbbdbf;stroke-miterlimit:10"/><circle cx="105.57" cy="52.02" r="28.08" style="fill:none;stroke:#bbbdbf;stroke-miterlimit:10"/><circle cx="105.57" cy="35.81" r="1.56" style="fill:none;stroke:#f69321;stroke-miterlimit:10;stroke-width:0.75px"/><line x1="105.57" y1="37.38" x2="105.57" y2="63.42" style="fill:none;stroke:#f69321;stroke-miterlimit:10;stroke-width:0.75px"/><path d="M99.76,68.11c0-2.59,2.6-4.69,5.81-4.69s5.81,2.1,5.81,4.69" style="fill:none;stroke:#f69321;stroke-miterlimit:10;stroke-width:0.75px"/><rect x="97.51" y="68.1" width="16.13" height="1.69" style="fill:none;stroke:#f69321;stroke-miterlimit:10;stroke-width:0.75px"/><circle cx="93.16" cy="52.14" r="4.94" style="fill:none;stroke:#f69321;stroke-miterlimit:10;stroke-width:0.75px"/><path d="M98.83,57.6c0,1.87-2.54,3.38-5.67,3.38s-5.67-1.51-5.67-3.38H98.83Z" style="fill:none;stroke:#f69321;stroke-miterlimit:10;stroke-width:0.75px"/><line x1="93.16" y1="47.54" x2="93.16" y2="41.35" style="fill:none;stroke:#f69321;stroke-miterlimit:10;stroke-width:0.75px"/><circle cx="117.98" cy="52.48" r="4.94" style="fill:none;stroke:#f69321;stroke-miterlimit:10;stroke-width:0.75px"/><path d="M123.65,57.6c0,1.87-2.54,3.38-5.67,3.38s-5.67-1.51-5.67-3.38h11.34Z" style="fill:none;stroke:#f69321;stroke-miterlimit:10;stroke-width:0.75px"/><line x1="117.98" y1="47.54" x2="117.98" y2="41.35" style="fill:none;stroke:#f69321;stroke-miterlimit:10;stroke-width:0.75px"/><path d="M91.09,54h3a0.94,0.94,0,1,0,0-1.85l-1.84,0,1.84,0a0.94,0.94,0,1,0,0-1.85h-3" style="fill:none;stroke:#f69321;stroke-miterlimit:10;stroke-width:0.5px"/><line x1="92.26" y1="50.26" x2="92.26" y2="54.01" style="fill:none;stroke:#f69321;stroke-miterlimit:10;stroke-width:0.75px"/><line x1="92.55" y1="50.23" x2="92.55" y2="48.89" style="fill:none;stroke:#f69321;stroke-miterlimit:10;stroke-width:0.5px"/><line x1="93.8" y1="50.23" x2="93.8" y2="48.89" style="fill:none;stroke:#f69321;stroke-miterlimit:10;stroke-width:0.5px"/><line x1="92.55" y1="55.39" x2="92.55" y2="54.01" style="fill:none;stroke:#f69321;stroke-miterlimit:10;stroke-width:0.5px"/><line x1="93.8" y1="55.39" x2="93.8" y2="54.01" style="fill:none;stroke:#f69321;stroke-miterlimit:10;stroke-width:0.5px"/><path d="M119.38,50.23s-2.5-.67-2.5.87c0,1.38,2.41.76,2.41,2.11s-2.72.92-2.72,0.92" style="fill:none;stroke:#f69321;stroke-miterlimit:10;stroke-width:0.5px"/><line x1="117.98" y1="48.89" x2="117.98" y2="55.39" style="fill:none;stroke:#f69321;stroke-miterlimit:10;stroke-width:0.6000000000000001px"/><path d="M105.57,43c3.53,0,6.91-2.94,8.59-2.94A9.15,9.15,0,0,1,118,41.36s-2.62-2.44-4.94-2.44-4.07,2-7.47,2" style="fill:none;stroke:#f69321;stroke-linejoin:round;stroke-width:0.6000000000000001px"/><path d="M105.57,43C102,43,98.66,40,97,40a9.15,9.15,0,0,0-3.82,1.31s2.62-2.44,4.94-2.44,4.07,2,7.47,2" style="fill:none;stroke:#f69321;stroke-linejoin:round;stroke-width:0.75px"/><line x1="158.67" y1="15.43" x2="158.67" y2="65.28" style="fill:none;stroke:#bbbdbf;stroke-miterlimit:10"/><line x1="169.17" y1="22.01" x2="169.17" y2="67.58" style="fill:none;stroke:#bbbdbf;stroke-miterlimit:10"/><line x1="179" y1="27.68" x2="179" y2="75.7" style="fill:none;stroke:#bbbdbf;stroke-miterlimit:10"/><circle cx="162.69" cy="3.76" r="3.33" style="fill:#bbbdbf"/><circle cx="194.15" cy="18.76" r="3.33" style="fill:#bbbdbf"/><polyline points="162.69 3.46 180.93 18.76 194.15 18.76" style="fill:none;stroke:#bbbdbf;stroke-miterlimit:10"/><circle cx="203" cy="26.71" r="3.33" style="fill:#bbbdbf"/><circle cx="203" cy="46.05" r="3.33" style="fill:#bbbdbf"/><line x1="203" y1="26.71" x2="203" y2="46.1" style="fill:none;stroke:#bbbdbf;stroke-miterlimit:10"/><line x1="213.5" y1="39.37" x2="213.5" y2="58.37" style="fill:none;stroke:#bbbdbf;stroke-miterlimit:10"/><circle cx="225.59" cy="72.2" r="3.33" style="fill:#bbbdbf"/><circle cx="225.59" cy="22.2" r="3.33" style="fill:#bbbdbf"/><line x1="225.59" y1="22.2" x2="225.59" y2="72.2" style="fill:none;stroke:#bbbdbf;stroke-miterlimit:10"/><line x1="213.95" y1="72.09" x2="213.95" y2="87.72" style="fill:none;stroke:#bbbdbf;stroke-miterlimit:10"/><line x1="192.34" y1="50.93" x2="192.34" y2="66.43" style="fill:none;stroke:#bbbdbf;stroke-miterlimit:10"/><line x1="153" y1="247.93" x2="153" y2="238.08" style="fill:none;stroke:#bbbdbf;stroke-miterlimit:10"/><circle cx="153" cy="223.93" r="3.33" style="fill:#bbbdbf"/><circle cx="137.8" cy="236.69" r="3.33" style="fill:#bbbdbf"/><line x1="153" y1="223.93" x2="137.8" y2="236.69" style="fill:none;stroke:#bbbdbf;stroke-miterlimit:10"/><circle cx="271.41" cy="310.55" r="3.33" style="fill:#bbbdbf"/><circle cx="256.21" cy="323.31" r="3.33" style="fill:#bbbdbf"/><polyline points="271.41 310.55 256.21 323.31 256.21 343.26" style="fill:none;stroke:#bbbdbf;stroke-miterlimit:10"/><circle cx="253.7" cy="375.37" r="3.33" style="fill:#bbbdbf"/><circle cx="238.5" cy="388.13" r="3.33" style="fill:#bbbdbf"/><line x1="253.7" y1="375.37" x2="238.5" y2="388.13" style="fill:none;stroke:#bbbdbf;stroke-miterlimit:10"/><circle cx="228.1" cy="84.18" r="3.33" style="fill:#bbbdbf"/><circle cx="243.3" cy="96.94" r="3.33" style="fill:#bbbdbf"/><line x1="228.1" y1="84.18" x2="243.3" y2="96.94" style="fill:none;stroke:#bbbdbf;stroke-miterlimit:10"/><circle cx="228.93" cy="98.61" r="3.33" style="fill:#bbbdbf"/><circle cx="244.13" cy="111.37" r="3.33" style="fill:#bbbdbf"/><line x1="228.93" y1="98.61" x2="244.13" y2="111.37" style="fill:none;stroke:#bbbdbf;stroke-miterlimit:10"/><polyline points="170.34 226.06 161.97 233.09 161.97 262.09" style="fill:none;stroke:#bbbdbf;stroke-miterlimit:10"/><circle cx="149.67" cy="207.09" r="3.33" style="fill:#bbbdbf"/><circle cx="140.6" cy="219" r="3.33" style="fill:#bbbdbf"/><circle cx="138.32" cy="72.36" r="3.33" style="fill:#bbbdbf"/><circle cx="108.35" cy="231.22" r="3.33" style="fill:#bbbdbf"/><circle cx="119.67" cy="221.74" r="3.33" style="fill:#bbbdbf"/><polyline points="109.27 230.06 130.98 211.84 131 78.44 138.6 72.12" style="fill:none;stroke:#bbbdbf;stroke-miterlimit:10"/><line x1="204.68" y1="118.45" x2="219.34" y2="118.45" style="fill:none;stroke:#bbbdbf;stroke-miterlimit:10"/><polyline points="140.99 219 140.99 133.03 158.36 118.45 168.53 118.45" style="fill:none;stroke:#bbbdbf;stroke-miterlimit:10"/><line x1="201.89" y1="128.09" x2="228.17" y2="128.09" style="fill:none;stroke:#bbbdbf;stroke-miterlimit:10"/><polyline points="149.67 207.09 149.67 142.67 167.04 128.09 171.31 128.09" style="fill:none;stroke:#bbbdbf;stroke-miterlimit:10"/><line x1="200.97" y1="107.49" x2="218.68" y2="107.49" style="fill:none;stroke:#bbbdbf;stroke-miterlimit:10"/><polyline points="140.33 122.06 157.7 107.49 172.24 107.49" style="fill:none;stroke:#bbbdbf;stroke-miterlimit:10"/><polyline points="172.34 153.09 172.34 197.76 184.5 197.76" style="fill:none;stroke:#bbbdbf;stroke-miterlimit:10"/><path d="M194.5,186.58" style="fill:none;stroke:#bbbdbf;stroke-miterlimit:10"/><polyline points="182.34 143.84 182.34 186.58 192.34 186.58" style="fill:none;stroke:#bbbdbf;stroke-miterlimit:10"/><circle cx="195" cy="154.04" r="3.33" style="fill:#bbbdbf"/><circle cx="195" cy="175.43" r="3.33" style="fill:#bbbdbf"/><line x1="195" y1="154.04" x2="195" y2="175.43" style="fill:none;stroke:#bbbdbf;stroke-miterlimit:10"/><circle cx="159.67" cy="155.85" r="3.33" style="fill:#bbbdbf"/><circle cx="159.67" cy="179.34" r="3.33" style="fill:#bbbdbf"/><line x1="159.67" y1="155.84" x2="159.67" y2="179.34" style="fill:none;stroke:#bbbdbf;stroke-miterlimit:10"/><circle cx="206.84" cy="154.04" r="3.33" style="fill:#bbbdbf"/><circle cx="206.84" cy="169.76" r="3.33" style="fill:#bbbdbf"/><line x1="206.84" y1="155.79" x2="206.84" y2="171.26" style="fill:none;stroke:#bbbdbf;stroke-miterlimit:10"/><circle cx="218.68" cy="154.04" r="3.33" style="fill:#bbbdbf"/><circle cx="218.68" cy="168.76" r="3.33" style="fill:#bbbdbf"/><line x1="218.68" y1="155.42" x2="218.68" y2="170.89" style="fill:none;stroke:#bbbdbf;stroke-miterlimit:10"/><line x1="175.09" y1="240.02" x2="175.09" y2="254.59" style="fill:none;stroke:#bbbdbf;stroke-miterlimit:10"/><circle cx="187.84" cy="229.02" r="3.33" style="fill:#bbbdbf"/><circle cx="187.84" cy="243.59" r="3.33" style="fill:#bbbdbf"/><line x1="187.84" y1="229.02" x2="187.84" y2="243.59" style="fill:none;stroke:#bbbdbf;stroke-miterlimit:10"/><polyline points="235.5 157.38 222.67 142.88 195 142.88" style="fill:none;stroke:#bbbdbf;stroke-miterlimit:10"/><line x1="181.73" y1="217.94" x2="197.62" y2="204.78" style="fill:none;stroke:#bbbdbf;stroke-miterlimit:10"/><polyline points="192.14 257.12 202.45 265.66 215.63 265.66" style="fill:none;stroke:#bbbdbf;stroke-miterlimit:10"/><circle cx="185.4" cy="267.32" r="3.33" style="fill:#bbbdbf"/><polyline points="185.4 267.32 195.71 275.87 211.12 275.87" style="fill:none;stroke:#bbbdbf;stroke-miterlimit:10"/><circle cx="254.04" cy="127.04" r="3.33" style="fill:#bbbdbf"/><circle cx="238.15" cy="139.54" r="3.33" style="fill:#bbbdbf"/><line x1="238.15" y1="139.54" x2="254.04" y2="126.38" style="fill:none;stroke:#bbbdbf;stroke-miterlimit:10"/><circle cx="273.83" cy="95.98" r="3.33" style="fill:#bbbdbf"/><circle cx="284.3" cy="104.56" r="3.33" style="fill:#bbbdbf"/><line x1="284.3" y1="104.66" x2="273.83" y2="95.98" style="fill:none;stroke:#bbbdbf;stroke-miterlimit:10"/><circle cx="226.89" cy="4.14" r="3.33" style="fill:#bbbdbf"/><circle cx="239.45" cy="79.51" r="3.33" style="fill:#bbbdbf"/><polyline points="239.45 79.51 239.45 52.91 247.78 52.91" style="fill:none;stroke:#bbbdbf;stroke-miterlimit:10"/><polyline points="226.89 4.47 239.45 14.89 239.45 45.59 246.92 45.59" style="fill:none;stroke:#bbbdbf;stroke-miterlimit:10"/><line x1="255.34" y1="62.52" x2="255.34" y2="112.76" style="fill:none;stroke:#bbbdbf;stroke-miterlimit:10"/><line x1="255.34" y1="17.26" x2="255.34" y2="31.88" style="fill:none;stroke:#bbbdbf;stroke-miterlimit:10"/><circle cx="264.92" cy="10.76" r="3.33" style="fill:#bbbdbf"/><circle cx="264.92" cy="112.76" r="3.33" style="fill:#bbbdbf"/><line x1="264.92" y1="65.27" x2="264.92" y2="112.76" style="fill:none;stroke:#bbbdbf;stroke-miterlimit:10"/><line x1="264.92" y1="10.76" x2="264.92" y2="29.12" style="fill:none;stroke:#bbbdbf;stroke-miterlimit:10"/><circle cx="274.5" cy="17.26" r="3.33" style="fill:#bbbdbf"/><circle cx="274.5" cy="80.85" r="3.33" style="fill:#bbbdbf"/><line x1="274.5" y1="62.52" x2="274.5" y2="80.85" style="fill:none;stroke:#bbbdbf;stroke-miterlimit:10"/><line x1="274.5" y1="17.26" x2="274.5" y2="31.87" style="fill:none;stroke:#bbbdbf;stroke-miterlimit:10"/><line x1="287.63" y1="69.14" x2="287.63" y2="94.44" style="fill:none;stroke:#bbbdbf;stroke-miterlimit:10"/><line x1="298.8" y1="78.61" x2="298.8" y2="93.61" style="fill:none;stroke:#bbbdbf;stroke-miterlimit:10"/><circle cx="202.22" cy="239" r="3.33" style="fill:#bbbdbf"/><line x1="202.22" y1="224" x2="202.22" y2="239" style="fill:none;stroke:#bbbdbf;stroke-miterlimit:10"/><polyline points="287.38 9.29 287.38 45.64 282.93 45.64" style="fill:none;stroke:#bbbdbf;stroke-miterlimit:10"/><polyline points="316.89 64.75 301.63 64.75 287.38 52.91 282.07 52.91" style="fill:none;stroke:#bbbdbf;stroke-miterlimit:10"/><circle cx="297.63" cy="3.33" r="3.33" style="fill:#bbbdbf"/><polyline points="297.63 3.33 297.63 47.44 308.24 56.25 324.06 56.25" style="fill:none;stroke:#bbbdbf;stroke-miterlimit:10"/><circle cx="306.62" cy="17.79" r="3.33" style="fill:#bbbdbf"/><circle cx="317.23" cy="45.12" r="3.33" style="fill:#bbbdbf"/><polyline points="306.62 18.04 306.62 36.27 317.23 45.08" style="fill:none;stroke:#bbbdbf;stroke-miterlimit:10"/><circle cx="192.38" cy="429.09" r="3.33" style="fill:#bbbdbf"/><circle cx="210.21" cy="429.09" r="3.33" style="fill:#bbbdbf"/><line x1="192.38" y1="429.09" x2="210.21" y2="429.09" style="fill:none;stroke:#bbbdbf;stroke-miterlimit:10"/><circle cx="177.42" cy="282.73" r="3.33" style="fill:#bbbdbf"/><circle cx="195.25" cy="282.73" r="3.33" style="fill:#bbbdbf"/><line x1="177.42" y1="282.73" x2="195.25" y2="282.73" style="fill:none;stroke:#bbbdbf;stroke-miterlimit:10"/><circle cx="215.88" cy="417.51" r="3.33" style="fill:#bbbdbf"/><circle cx="192.38" cy="417.51" r="3.33" style="fill:#bbbdbf"/><line x1="193.55" y1="417.51" x2="215.88" y2="417.51" style="fill:none;stroke:#bbbdbf;stroke-miterlimit:10"/><circle cx="195.71" cy="405.59" r="3.33" style="fill:#bbbdbf"/><circle cx="220.71" cy="406.26" r="3.33" style="fill:#bbbdbf"/><line x1="195.71" y1="405.59" x2="220.71" y2="405.59" style="fill:none;stroke:#bbbdbf;stroke-miterlimit:10"/><circle cx="188.17" cy="392.94" r="3.33" style="fill:#bbbdbf"/><polyline points="210.51 392.94 223.84 392.94 223.84 382.33" style="fill:none;stroke:#bbbdbf;stroke-miterlimit:10"/><line x1="189" y1="392.94" x2="203.84" y2="392.94" style="fill:none;stroke:#bbbdbf;stroke-miterlimit:10"/><circle cx="222.86" cy="245.02" r="3.33" style="fill:#bbbdbf"/><line x1="222.86" y1="245.02" x2="222.86" y2="258.17" style="fill:none;stroke:#bbbdbf;stroke-miterlimit:10"/><circle cx="232.66" cy="238.35" r="3.33" style="fill:#bbbdbf"/><line x1="232.66" y1="238.35" x2="232.66" y2="254.22" style="fill:none;stroke:#bbbdbf;stroke-miterlimit:10"/><line x1="242.46" y1="241.69" x2="242.46" y2="254.22" style="fill:none;stroke:#bbbdbf;stroke-miterlimit:10"/><circle cx="242.46" cy="238.35" r="3.33" style="fill:none;stroke:#faaf42;stroke-miterlimit:10"/><circle cx="252.26" cy="245.02" r="3.33" style="fill:#bbbdbf"/><line x1="252.26" y1="245.02" x2="252.26" y2="258.17" style="fill:none;stroke:#bbbdbf;stroke-miterlimit:10"/><circle cx="273.11" cy="295.17" r="3.33" style="fill:#bbbdbf"/><line x1="273.11" y1="295.18" x2="259.86" y2="295.18" style="fill:none;stroke:#bbbdbf;stroke-miterlimit:10"/><circle cx="279.68" cy="285.37" r="3.33" style="fill:#bbbdbf"/><line x1="279.68" y1="285.37" x2="263.81" y2="285.37" style="fill:none;stroke:#bbbdbf;stroke-miterlimit:10"/><circle cx="279.68" cy="275.57" r="3.33" style="fill:#bbbdbf"/><line x1="279.68" y1="275.57" x2="263.81" y2="275.57" style="fill:none;stroke:#bbbdbf;stroke-miterlimit:10"/><circle cx="273.11" cy="265.77" r="3.33" style="fill:#bbbdbf"/><line x1="273.11" y1="265.77" x2="259.87" y2="265.77" style="fill:none;stroke:#bbbdbf;stroke-miterlimit:10"/><line x1="237.56" y1="307.43" x2="237.56" y2="339.93" style="fill:none;stroke:#bbbdbf;stroke-miterlimit:10"/><circle cx="246.1" cy="350.26" r="3.33" style="fill:#bbbdbf"/><line x1="246.1" y1="305.78" x2="246.1" y2="350.26" style="fill:none;stroke:#bbbdbf;stroke-miterlimit:10"/><polyline points="186.34 293.3 197.84 293.3 227.67 318.47 227.67 346.56" style="fill:none;stroke:#bbbdbf;stroke-miterlimit:10"/><polyline points="220.3 346.58 220.3 324.29 194.93 302.89 181.8 302.89" style="fill:none;stroke:#bbbdbf;stroke-miterlimit:10"/><circle cx="237.56" cy="280.43" r="26.75" transform="translate(-128.71 250.13) rotate(-45)" style="fill:none;stroke:#bbbdbf;stroke-miterlimit:10"/><path d="M237.5,288l-8.31,8.31a3.28,3.28,0,0,1-4.63,0l-2.77-2.77a3.27,3.27,0,0,1,0-4.63l7.7-7.7a3.27,3.27,0,0,1,4.64,0l2.77,2.77a3.34,3.34,0,0,1,.52.67" style="fill:none;stroke:#f69321;stroke-miterlimit:10;stroke-width:0.75px"/><path d="M233.58,288.41L229,293c-1.28,1.28-2.46,2.17-3.41,1.23l-1.72-1.72c-1.11-1.11-.07-2.15,1.21-3.43l4.56-4.56c1.28-1.28,2.32-2.32,3.42-1.21l1.73,1.73a1.22,1.22,0,0,1,.32,1.32" style="fill:none;stroke:#f69321;stroke-miterlimit:10;stroke-width:0.75px"/><path d="M246,279.43L237.5,288a3.28,3.28,0,0,1-4.63,0l-2.77-2.77a3.2,3.2,0,0,1-.52-0.67" style="fill:none;stroke:#f69321;stroke-miterlimit:10;stroke-width:0.75px"/><path d="M229,281.64l8.77-8.77a3.28,3.28,0,0,1,4.64,0l2.77,2.77a3.27,3.27,0,0,1,.51.66" style="fill:none;stroke:#f69321;stroke-miterlimit:10;stroke-width:0.75px"/><path d="M241.89,280.1l-4.56,4.56c-1.28,1.28-2.31,2.33-3.41,1.23l-1.73-1.72a1.34,1.34,0,0,1-.5-1.38" style="fill:none;stroke:#f69321;stroke-miterlimit:10;stroke-width:0.75px"/><path d="M233.4,280.73l4.56-4.56c1.28-1.28,2.31-2.33,3.43-1.21l1.72,1.72a1.22,1.22,0,0,1,.33,1.29" style="fill:none;stroke:#f69321;stroke-miterlimit:10;stroke-width:0.75px"/><path d="M237.37,273.29l8.77-8.77a3.28,3.28,0,0,1,4.64,0l2.77,2.77a3.28,3.28,0,0,1,0,4.63l-7.7,7.7a3.28,3.28,0,0,1-4.63,0l-2.77-2.77a3.23,3.23,0,0,1-.52-0.67" style="fill:none;stroke:#f69321;stroke-miterlimit:10;stroke-width:0.75px"/><path d="M241.75,272.39l4.56-4.56c1.28-1.28,2.31-2.32,3.43-1.21l1.72,1.72c0.95,0.95.05,2.13-1.23,3.41l-4.56,4.56c-1.28,1.28-2.31,2.33-3.41,1.23l-1.73-1.73a1.34,1.34,0,0,1-.5-1.38" style="fill:none;stroke:#f69321;stroke-miterlimit:10;stroke-width:0.75px"/><circle cx="201.05" cy="320.76" r="3.33" style="fill:#bbbdbf"/><circle cx="201.05" cy="339.04" r="3.33" style="fill:#bbbdbf"/><line x1="201.05" y1="320.76" x2="201.05" y2="339.04" style="fill:none;stroke:#bbbdbf;stroke-miterlimit:10"/><circle cx="191.34" cy="312.71" r="3.33" style="fill:#bbbdbf"/><circle cx="191.34" cy="344.15" r="3.33" style="fill:#bbbdbf"/><line x1="191.34" y1="312.71" x2="191.34" y2="344.15" style="fill:none;stroke:#bbbdbf;stroke-miterlimit:10"/><line x1="170.12" y1="207.09" x2="159.64" y2="198.3" style="fill:none;stroke:#bbbdbf;stroke-miterlimit:10"/><circle cx="159.64" cy="198.3" r="3.33" style="fill:#bbbdbf"/><circle cx="172.67" cy="209.23" r="3.33" style="fill:none;stroke:#faaf42;stroke-miterlimit:10"/><circle cx="224.05" cy="364.26" r="18.07" transform="translate(-191.95 265.12) rotate(-45)" style="fill:none;stroke:#bbbdbf;stroke-miterlimit:10"/><path d="M233,356.11V367.3h3.81l-1.22,2.77h-5.49v-7l-6,6-6-6v7h-5.49l-1.22-2.77h3.81V356.11l8.94,8.6,8.94-8.6m0.75-1.76-1.27,1.22-8.42,8.1-8.42-8.1-1.27-1.22v12.2h-4.21l0.46,1.05,1.22,2.77,0.2,0.45h6.73v-6l4.76,4.7,0.53,0.52,0.53-.52,4.76-4.7v6h6.73l0.2-.45,1.22-2.77,0.46-1.05h-4.21v-12.2h0Z" style="fill:#f69321"/><circle cx="186.6" cy="118.45" r="18.07" transform="translate(-29.1 166.65) rotate(-45)" style="fill:none;stroke:#bbbdbf;stroke-miterlimit:10"/><path d="M187.21,106.41l8.66,4.2-9.74,3-8.6-3.91,9.67-3.26m0-.75-11.62,3.91,10.45,4.75,11.7-3.57-10.53-5.1h0Z" style="fill:#f69321"/><path d="M197.11,112.93v13.25l-8.81-4v-6.59l8.81-2.65m0.7-.94-10.21,3.07v7.57l10.21,4.64V112h0Z" style="fill:#f69321"/><path d="M176.1,111.65L185,115.8v14.37l-8.92-4v-14.5m-0.7-1.1v16.05l10.32,4.64v-15.9l-10.32-4.8h0Z" style="fill:#f69321"/><circle cx="264.92" cy="47.2" r="18.07" transform="translate(44.22 201.16) rotate(-45)" style="fill:none;stroke:#bbbdbf;stroke-miterlimit:10"/><path d="M266.66,34.69v3.39a6.78,6.78,0,0,1,3.92,1.25,3.75,3.75,0,0,1,1.56,3.09q0,3.09-2.53,3.94a7.07,7.07,0,0,1-1,.28,4.93,4.93,0,0,1,2.82,1.45,4.51,4.51,0,0,1,1.18,3.25,4.31,4.31,0,0,1-2,4,8.43,8.43,0,0,1-3.91.88V59.7h-1.27V56.27H263V59.7h-1.27V56.27h-4.5V53.86h2.2V40.44h-2.2V38.06h4.5V34.69H263v3.37h2.38V34.69h1.27M262.15,45.6H266a3.36,3.36,0,0,0,2.38-.94,2.46,2.46,0,0,0,.79-1.91q0-2.27-3.16-2.27h-3.88V45.6m0,8.25h4a3.72,3.72,0,0,0,2.69-.79,2.65,2.65,0,0,0,.66-2,2.88,2.88,0,0,0-.91-2,3.23,3.23,0,0,0-2.45-1h-4v5.78m5.26-19.91h-2.77v3.37h-0.88V33.94H261v3.37h-4.5v3.87h2.2V53.11h-2.2V57H261v3.43h2.77V57h0.88v3.43h2.77V57a8.43,8.43,0,0,0,3.53-.94,5,5,0,0,0,2.42-4.7A5.26,5.26,0,0,0,272,47.57a5.52,5.52,0,0,0-1.17-.93,4.51,4.51,0,0,0,2.1-4.22A4.48,4.48,0,0,0,271,38.73a7.09,7.09,0,0,0-3.63-1.34V33.94h0Zm-4.51,7.29H266c2.41,0,2.41,1,2.41,1.52a1.71,1.71,0,0,1-.54,1.36,2.62,2.62,0,0,1-1.87.74H262.9V41.23h0Zm0,7.6h3.26a2.49,2.49,0,0,1,1.9.78,2.15,2.15,0,0,1,.7,1.5,1.94,1.94,0,0,1-.44,1.43,3.13,3.13,0,0,1-2.16.57H262.9V48.83h0Z" style="fill:#f69321"/><circle cx="153" cy="251.26" r="3.33" style="fill:none;stroke:#faaf42;stroke-miterlimit:10"/><circle cx="178.46" cy="303" r="3.33" style="fill:none;stroke:#faaf42;stroke-miterlimit:10"/><circle cx="287.63" cy="65.81" r="3.33" style="fill:none;stroke:#faaf42;stroke-miterlimit:10"/><circle cx="298.8" cy="75.27" r="3.33" style="fill:none;stroke:#faaf42;stroke-miterlimit:10"/><circle cx="266.44" cy="327.34" r="3.33" style="fill:none;stroke:#faaf42;stroke-miterlimit:10"/><circle cx="15.05" cy="97.85" r="3.33" style="fill:none;stroke:#faaf42;stroke-miterlimit:10"/><circle cx="78.57" cy="109.35" r="3.33" style="fill:none;stroke:#faaf42;stroke-miterlimit:10"/><circle cx="109.17" cy="114.76" r="3.33" style="fill:none;stroke:#faaf42;stroke-miterlimit:10"/><circle cx="120.75" cy="166.43" r="3.33" style="fill:none;stroke:#faaf42;stroke-miterlimit:10"/><circle cx="120.75" cy="204.43" r="3.33" style="fill:none;stroke:#faaf42;stroke-miterlimit:10"/><circle cx="172.34" cy="149.76" r="3.33" style="fill:none;stroke:#faaf42;stroke-miterlimit:10"/><circle cx="199.67" cy="85.06" r="3.33" style="fill:#bbbdbf"/><line x1="145.34" y1="85.06" x2="200.5" y2="85.06" style="fill:none;stroke:#bbbdbf;stroke-miterlimit:10"/><circle cx="142" cy="85.06" r="3.33" style="fill:none;stroke:#faaf42;stroke-miterlimit:10"/><circle cx="169.17" cy="70.91" r="3.33" style="fill:none;stroke:#faaf42;stroke-miterlimit:10"/><circle cx="191" cy="34.76" r="3.33" style="fill:none;stroke:#faaf42;stroke-miterlimit:10"/><circle cx="213.51" cy="36.03" r="3.33" style="fill:none;stroke:#faaf42;stroke-miterlimit:10"/><circle cx="142.19" cy="95.28" r="3.33" style="fill:#bbbdbf"/><line x1="207.02" y1="95.28" x2="142.37" y2="95.28" style="fill:none;stroke:#bbbdbf;stroke-miterlimit:10"/><circle cx="210.35" cy="95.28" r="3.33" style="fill:none;stroke:#faaf42;stroke-miterlimit:10"/><circle cx="222.67" cy="118.45" r="3.33" style="fill:none;stroke:#faaf42;stroke-miterlimit:10"/><circle cx="222.01" cy="107.49" r="3.33" style="fill:none;stroke:#faaf42;stroke-miterlimit:10"/><circle cx="21.71" cy="106.82" r="3.33" style="fill:none;stroke:#faaf42;stroke-miterlimit:10"/><circle cx="202.22" cy="220.67" r="3.33" style="fill:none;stroke:#faaf42;stroke-miterlimit:10"/><circle cx="207.17" cy="392.94" r="3.33" style="fill:none;stroke:#faaf42;stroke-miterlimit:10"/></svg>