<svg id="Layer_1" data-name="Layer 1" xmlns="http://www.w3.org/2000/svg" viewBox="0 0 502.09 400.39"><title>world-map-2</title><circle cx="124.18" cy="238.23" r="3.33" style="fill:none;stroke:#faaf42;stroke-miterlimit:10"/><circle cx="271.18" cy="188.29" r="3.33" style="fill:#bbbdbf"/><circle cx="370.71" cy="142.91" r="3.33" style="fill:#bbbdbf"/><circle cx="344.67" cy="78.23" r="3.33" style="fill:#bbbdbf"/><circle cx="431.77" cy="106.89" r="3.33" style="fill:#bbbdbf"/><circle cx="375.98" cy="79.78" r="3.33" style="fill:#bbbdbf"/><circle cx="385.05" cy="87.23" r="3.33" style="fill:#bbbdbf"/><circle cx="241.82" cy="212.88" r="3.33" style="fill:#bbbdbf"/><circle cx="61.27" cy="170.09" r="3.33" style="fill:#bbbdbf"/><circle cx="77.3" cy="112.46" r="3.33" style="fill:#bbbdbf"/><circle cx="89.72" cy="151.8" r="3.33" style="fill:#bbbdbf"/><circle cx="260.99" cy="178.44" r="3.33" style="fill:#bbbdbf"/><circle cx="141.48" cy="186.79" r="3.33" style="fill:#bbbdbf"/><circle cx="12.23" cy="84.94" r="3.33" style="fill:#bbbdbf"/><circle cx="166.23" cy="37.44" r="3.33" style="fill:#bbbdbf"/><circle cx="39.56" cy="199.39" r="3.33" style="fill:#bbbdbf"/><circle cx="100.5" cy="283.65" r="3.33" style="fill:#bbbdbf"/><circle cx="100.5" cy="322.4" r="3.33" style="fill:#bbbdbf"/><line x1="100.5" y1="283.65" x2="100.5" y2="322.4" style="fill:none;stroke:#bbbdbf;stroke-miterlimit:10"/><circle cx="112.53" cy="289.48" r="3.33" style="fill:#bbbdbf"/><circle cx="112.53" cy="312.35" r="3.33" style="fill:#bbbdbf"/><line x1="112.52" y1="291.23" x2="112.52" y2="313.85" style="fill:none;stroke:#bbbdbf;stroke-miterlimit:10"/><circle cx="15.56" cy="203.06" r="3.33" style="fill:#bbbdbf"/><line x1="15.56" y1="183.52" x2="15.56" y2="204.56" style="fill:none;stroke:#bbbdbf;stroke-miterlimit:10"/><circle cx="15.56" cy="180.19" r="3.33" style="fill:none;stroke:#faaf42;stroke-miterlimit:10"/><circle cx="26.47" cy="170.51" r="3.33" style="fill:#bbbdbf"/><circle cx="26.47" cy="193.37" r="3.33" style="fill:#bbbdbf"/><line x1="26.47" y1="172.25" x2="26.47" y2="194.87" style="fill:none;stroke:#bbbdbf;stroke-miterlimit:10"/><circle cx="26.47" cy="142.79" r="3.33" style="fill:#bbbdbf"/><circle cx="26.47" cy="156.56" r="3.33" style="fill:#bbbdbf"/><line x1="26.47" y1="144.54" x2="26.47" y2="158.05" style="fill:none;stroke:#bbbdbf;stroke-miterlimit:10"/><circle cx="3.33" cy="197.28" r="3.33" style="fill:#bbbdbf"/><circle cx="3.33" cy="211.05" r="3.33" style="fill:#bbbdbf"/><line x1="3.33" y1="199.03" x2="3.33" y2="212.55" style="fill:none;stroke:#bbbdbf;stroke-miterlimit:10"/><circle cx="90.02" cy="126.58" r="3.33" style="fill:#bbbdbf"/><circle cx="90.02" cy="140.34" r="3.33" style="fill:#bbbdbf"/><line x1="90.02" y1="128.32" x2="90.02" y2="141.84" style="fill:none;stroke:#bbbdbf;stroke-miterlimit:10"/><circle cx="44.18" cy="83.6" r="3.33" style="fill:#bbbdbf"/><circle cx="44.18" cy="97.37" r="3.33" style="fill:#bbbdbf"/><line x1="44.18" y1="85.35" x2="44.18" y2="98.87" style="fill:none;stroke:#bbbdbf;stroke-miterlimit:10"/><circle cx="22.7" cy="79.12" r="3.33" style="fill:#bbbdbf"/><circle cx="22.7" cy="92.89" r="3.33" style="fill:#bbbdbf"/><line x1="22.7" y1="80.87" x2="22.7" y2="94.39" style="fill:none;stroke:#bbbdbf;stroke-miterlimit:10"/><circle cx="139.97" cy="51.66" r="3.33" style="fill:#bbbdbf"/><circle cx="139.97" cy="65.43" r="3.33" style="fill:#bbbdbf"/><line x1="139.97" y1="53.41" x2="139.97" y2="66.93" style="fill:none;stroke:#bbbdbf;stroke-miterlimit:10"/><circle cx="37.52" cy="182.91" r="3.33" style="fill:#bbbdbf"/><line x1="37.52" y1="137.29" x2="37.52" y2="184.41" style="fill:none;stroke:#bbbdbf;stroke-miterlimit:10"/><circle cx="37.52" cy="133.96" r="3.33" style="fill:none;stroke:#faaf42;stroke-miterlimit:10"/><circle cx="46" cy="111.78" r="3.33" style="fill:#bbbdbf"/><circle cx="46" cy="160.73" r="3.33" style="fill:#bbbdbf"/><line x1="46" y1="113.52" x2="46" y2="162.23" style="fill:none;stroke:#bbbdbf;stroke-miterlimit:10"/><circle cx="30.85" cy="70.68" r="3.33" style="fill:#bbbdbf"/><circle cx="30.85" cy="119.63" r="3.33" style="fill:#bbbdbf"/><line x1="30.85" y1="72.43" x2="30.85" y2="121.13" style="fill:none;stroke:#bbbdbf;stroke-miterlimit:10"/><circle cx="56.08" cy="85.32" r="3.33" style="fill:#bbbdbf"/><circle cx="56.08" cy="158.6" r="3.33" style="fill:#bbbdbf"/><line x1="56.08" y1="87.07" x2="56.08" y2="160.1" style="fill:none;stroke:#bbbdbf;stroke-miterlimit:10"/><circle cx="67.2" cy="93.34" r="3.33" style="fill:#bbbdbf"/><circle cx="67.2" cy="150.94" r="3.33" style="fill:#bbbdbf"/><line x1="67.2" y1="95.09" x2="67.2" y2="152.44" style="fill:none;stroke:#bbbdbf;stroke-miterlimit:10"/><circle cx="328.98" cy="161.24" r="3.33" style="fill:#bbbdbf"/><line x1="316.47" y1="161.24" x2="330.48" y2="161.24" style="fill:none;stroke:#bbbdbf;stroke-miterlimit:10"/><circle cx="123.73" cy="276.86" r="3.33" style="fill:#bbbdbf"/><circle cx="123.73" cy="305.6" r="3.33" style="fill:#bbbdbf"/><line x1="123.73" y1="278.24" x2="123.73" y2="307.73" style="fill:none;stroke:#bbbdbf;stroke-miterlimit:10"/><circle cx="118.69" cy="175.89" r="3.33" style="fill:#bbbdbf"/><line x1="118.69" y1="132.01" x2="118.69" y2="178.01" style="fill:none;stroke:#bbbdbf;stroke-miterlimit:10"/><circle cx="129.19" cy="161.64" r="3.33" style="fill:#bbbdbf"/><line x1="129.19" y1="130.13" x2="129.19" y2="163.76" style="fill:none;stroke:#bbbdbf;stroke-miterlimit:10"/><circle cx="108.69" cy="165.97" r="3.33" style="fill:#bbbdbf"/><line x1="108.69" y1="130.26" x2="108.69" y2="168.09" style="fill:none;stroke:#bbbdbf;stroke-miterlimit:10"/><circle cx="100.19" cy="140.39" r="3.33" style="fill:#bbbdbf"/><line x1="100.19" y1="125.51" x2="100.19" y2="142.51" style="fill:none;stroke:#bbbdbf;stroke-miterlimit:10"/><circle cx="118.69" cy="44.8" r="3.33" style="fill:#bbbdbf"/><line x1="118.69" y1="72.43" x2="118.69" y2="42.67" style="fill:none;stroke:#bbbdbf;stroke-miterlimit:10"/><line x1="129.19" y1="74.31" x2="129.19" y2="62.38" style="fill:none;stroke:#bbbdbf;stroke-miterlimit:10"/><circle cx="129.19" cy="59.05" r="3.33" style="fill:none;stroke:#faaf42;stroke-miterlimit:10"/><circle cx="108.69" cy="59.05" r="3.33" style="fill:#bbbdbf"/><line x1="108.69" y1="74.18" x2="108.69" y2="56.92" style="fill:none;stroke:#bbbdbf;stroke-miterlimit:10"/><circle cx="100.42" cy="66.15" r="3.33" style="fill:#bbbdbf"/><line x1="100.42" y1="78.75" x2="100.42" y2="64.02" style="fill:none;stroke:#bbbdbf;stroke-miterlimit:10"/><circle cx="147.79" cy="228.72" r="3.33" style="fill:#bbbdbf"/><circle cx="58.97" cy="228.12" r="3.33" style="fill:#bbbdbf"/><line x1="58.97" y1="228.13" x2="71.27" y2="228.13" style="fill:none;stroke:#bbbdbf;stroke-miterlimit:10"/><circle cx="52.4" cy="215.42" r="3.33" style="fill:#bbbdbf"/><line x1="52.4" y1="215.42" x2="68.27" y2="215.42" style="fill:none;stroke:#bbbdbf;stroke-miterlimit:10"/><circle cx="58.97" cy="202.72" r="3.33" style="fill:#bbbdbf"/><line x1="58.97" y1="202.72" x2="71.36" y2="202.72" style="fill:none;stroke:#bbbdbf;stroke-miterlimit:10"/><circle cx="274.76" cy="161.24" r="3.33" style="fill:#bbbdbf"/><line x1="274.76" y1="161.24" x2="286.05" y2="161.24" style="fill:none;stroke:#bbbdbf;stroke-miterlimit:10"/><circle cx="268.18" cy="151.54" r="3.33" style="fill:#bbbdbf"/><line x1="268.18" y1="151.54" x2="283.22" y2="151.54" style="fill:none;stroke:#bbbdbf;stroke-miterlimit:10"/><circle cx="274.76" cy="141.84" r="3.33" style="fill:#bbbdbf"/><line x1="274.76" y1="141.84" x2="285.96" y2="141.84" style="fill:none;stroke:#bbbdbf;stroke-miterlimit:10"/><circle cx="156.03" cy="152.61" r="3.33" style="fill:#bbbdbf"/><line x1="156.03" y1="152.61" x2="172.14" y2="152.61" style="fill:none;stroke:#bbbdbf;stroke-miterlimit:10"/><circle cx="142.78" cy="142.91" r="3.33" style="fill:#bbbdbf"/><line x1="142.78" y1="142.91" x2="169.58" y2="142.91" style="fill:none;stroke:#bbbdbf;stroke-miterlimit:10"/><circle cx="156.03" cy="133.21" r="3.33" style="fill:#bbbdbf"/><line x1="156.03" y1="133.21" x2="172.21" y2="133.21" style="fill:none;stroke:#bbbdbf;stroke-miterlimit:10"/><line x1="177.54" y1="112.47" x2="177.54" y2="127.28" style="fill:none;stroke:#bbbdbf;stroke-miterlimit:10"/><circle cx="177.54" cy="109.14" r="3.33" style="fill:none;stroke:#faaf42;stroke-miterlimit:10"/><line x1="187.25" y1="93.82" x2="187.25" y2="124.8" style="fill:none;stroke:#bbbdbf;stroke-miterlimit:10"/><circle cx="187.25" cy="93.82" r="3.33" style="fill:#bbbdbf"/><circle cx="196.95" cy="115.51" r="3.33" style="fill:#bbbdbf"/><line x1="196.95" y1="115.51" x2="196.95" y2="127.37" style="fill:none;stroke:#bbbdbf;stroke-miterlimit:10"/><circle cx="133.52" cy="228.12" r="3.33" style="fill:#bbbdbf"/><line x1="133.52" y1="228.13" x2="120.27" y2="228.13" style="fill:none;stroke:#bbbdbf;stroke-miterlimit:10"/><circle cx="133.52" cy="202.72" r="3.33" style="fill:#bbbdbf"/><line x1="133.52" y1="202.72" x2="120.28" y2="202.72" style="fill:none;stroke:#bbbdbf;stroke-miterlimit:10"/><circle cx="110.3" cy="260.34" r="3.33" style="fill:#bbbdbf"/><line x1="110.3" y1="260.34" x2="110.3" y2="238.23" style="fill:none;stroke:#bbbdbf;stroke-miterlimit:10"/><circle cx="100.5" cy="266.92" r="3.33" style="fill:#bbbdbf"/><line x1="100.5" y1="266.91" x2="100.5" y2="242.18" style="fill:none;stroke:#bbbdbf;stroke-miterlimit:10"/><circle cx="90.7" cy="258.05" r="3.33" style="fill:#bbbdbf"/><line x1="90.7" y1="258.05" x2="90.7" y2="242.18" style="fill:none;stroke:#bbbdbf;stroke-miterlimit:10"/><line x1="80.9" y1="299.39" x2="80.9" y2="238.23" style="fill:none;stroke:#bbbdbf;stroke-miterlimit:10"/><circle cx="220.79" cy="194.79" r="3.33" style="fill:#bbbdbf"/><circle cx="220.79" cy="211.32" r="3.33" style="fill:#bbbdbf"/><line x1="220.79" y1="194.79" x2="220.79" y2="211.32" style="fill:none;stroke:#bbbdbf;stroke-miterlimit:10"/><circle cx="396.35" cy="92.62" r="3.33" style="fill:#bbbdbf"/><circle cx="396.35" cy="104.22" r="3.33" style="fill:#bbbdbf"/><line x1="396.35" y1="92.62" x2="396.35" y2="104.22" style="fill:none;stroke:#bbbdbf;stroke-miterlimit:10"/><circle cx="399.68" cy="79.78" r="3.33" style="fill:#bbbdbf"/><circle cx="452.58" cy="51.71" r="3.33" style="fill:#bbbdbf"/><polyline points="399.68 79.45 439.55 79.45 452.58 68.52 452.58 51.71" style="fill:none;stroke:#bbbdbf;stroke-miterlimit:10"/><circle cx="415.55" cy="88.38" r="3.33" style="fill:#bbbdbf"/><circle cx="454.88" cy="77.11" r="3.33" style="fill:#bbbdbf"/><polyline points="415.55 88.04 441.86 88.04 454.88 77.11" style="fill:none;stroke:#bbbdbf;stroke-miterlimit:10"/><circle cx="367.37" cy="154.74" r="3.33" style="fill:#bbbdbf"/><circle cx="367.37" cy="166.34" r="3.33" style="fill:#bbbdbf"/><line x1="367.38" y1="154.74" x2="367.38" y2="166.34" style="fill:none;stroke:#bbbdbf;stroke-miterlimit:10"/><circle cx="297.13" cy="10.67" r="3.33" style="fill:#bbbdbf"/><circle cx="297.13" cy="47.13" r="3.33" style="fill:#bbbdbf"/><line x1="297.13" y1="10.67" x2="297.13" y2="47.13" style="fill:none;stroke:#bbbdbf;stroke-miterlimit:10"/><circle cx="208.95" cy="125.17" r="3.33" style="fill:#bbbdbf"/><circle cx="207.93" cy="106.48" r="3.33" style="fill:#bbbdbf"/><polyline points="207.93 106.48 207.93 82.3 227.88 82.3" style="fill:none;stroke:#bbbdbf;stroke-miterlimit:10"/><circle cx="302.01" cy="193.23" r="3.33" style="fill:#bbbdbf"/><line x1="302.01" y1="169.47" x2="302.01" y2="193.22" style="fill:none;stroke:#bbbdbf;stroke-miterlimit:10"/><circle cx="232.07" cy="188.29" r="3.33" style="fill:#bbbdbf"/><circle cx="232.07" cy="224.5" r="3.33" style="fill:#bbbdbf"/><line x1="232.08" y1="188.29" x2="232.08" y2="224.5" style="fill:none;stroke:#bbbdbf;stroke-miterlimit:10"/><circle cx="228.74" cy="131.94" r="3.33" style="fill:#bbbdbf"/><circle cx="228.74" cy="168.14" r="3.33" style="fill:#bbbdbf"/><line x1="228.74" y1="131.94" x2="228.74" y2="168.14" style="fill:none;stroke:#bbbdbf;stroke-miterlimit:10"/><circle cx="274.45" cy="8.46" r="3.33" style="fill:#bbbdbf"/><circle cx="274.45" cy="26.56" r="3.33" style="fill:#bbbdbf"/><line x1="274.46" y1="8.46" x2="274.46" y2="26.56" style="fill:none;stroke:#bbbdbf;stroke-miterlimit:10"/><circle cx="274.45" cy="38.29" r="3.33" style="fill:#bbbdbf"/><line x1="274.46" y1="38.29" x2="274.46" y2="56.92" style="fill:none;stroke:#bbbdbf;stroke-miterlimit:10"/><circle cx="218.6" cy="150.94" r="3.33" style="fill:#bbbdbf"/><line x1="218.6" y1="118.07" x2="218.6" y2="150.94" style="fill:none;stroke:#bbbdbf;stroke-miterlimit:10"/><circle cx="218.6" cy="114.74" r="3.33" style="fill:none;stroke:#faaf42;stroke-miterlimit:10"/><circle cx="148.49" cy="196.56" r="3.33" style="fill:#bbbdbf"/><circle cx="168.16" cy="196.56" r="3.33" style="fill:#bbbdbf"/><line x1="148.49" y1="196.56" x2="168.16" y2="196.56" style="fill:none;stroke:#bbbdbf;stroke-miterlimit:10"/><circle cx="193.06" cy="47.2" r="3.33" style="fill:#bbbdbf"/><circle cx="228.43" cy="47.2" r="3.33" style="fill:#bbbdbf"/><line x1="193.06" y1="47.2" x2="228.43" y2="47.2" style="fill:none;stroke:#bbbdbf;stroke-miterlimit:10"/><circle cx="182.6" cy="56.92" r="3.33" style="fill:#bbbdbf"/><circle cx="217.96" cy="56.92" r="3.33" style="fill:#bbbdbf"/><line x1="182.6" y1="56.92" x2="217.96" y2="56.92" style="fill:none;stroke:#bbbdbf;stroke-miterlimit:10"/><polyline points="217.26 35.36 241.27 35.36 241.27 54.18" style="fill:none;stroke:#bbbdbf;stroke-miterlimit:10"/><circle cx="227.38" cy="23.53" r="3.33" style="fill:#bbbdbf"/><polyline points="227.38 23.53 252.57 23.53 252.57 50.3" style="fill:none;stroke:#bbbdbf;stroke-miterlimit:10"/><circle cx="240.59" cy="11.61" r="3.33" style="fill:#bbbdbf"/><polyline points="240.59 11.61 262.7 11.61 262.7 50.91" style="fill:none;stroke:#bbbdbf;stroke-miterlimit:10"/><circle cx="144.36" cy="166.28" r="3.33" style="fill:#bbbdbf"/><circle cx="164.03" cy="166.28" r="3.33" style="fill:#bbbdbf"/><line x1="144.36" y1="166.28" x2="164.03" y2="166.28" style="fill:none;stroke:#bbbdbf;stroke-miterlimit:10"/><circle cx="150.77" cy="121.67" r="3.33" style="fill:#bbbdbf"/><circle cx="166.43" cy="121.67" r="3.33" style="fill:#bbbdbf"/><line x1="150.77" y1="121.67" x2="166.43" y2="121.67" style="fill:none;stroke:#bbbdbf;stroke-miterlimit:10"/><circle cx="205.6" cy="166.28" r="3.33" style="fill:#bbbdbf"/><circle cx="218.59" cy="166.28" r="3.33" style="fill:#bbbdbf"/><line x1="205.6" y1="166.28" x2="218.59" y2="166.28" style="fill:none;stroke:#bbbdbf;stroke-miterlimit:10"/><circle cx="312.87" cy="176.24" r="3.33" style="fill:#bbbdbf"/><circle cx="325.86" cy="176.24" r="3.33" style="fill:#bbbdbf"/><line x1="312.87" y1="176.24" x2="325.86" y2="176.24" style="fill:none;stroke:#bbbdbf;stroke-miterlimit:10"/><circle cx="425.27" cy="97.34" r="3.33" style="fill:#bbbdbf"/><circle cx="438.27" cy="97.34" r="3.33" style="fill:#bbbdbf"/><line x1="425.27" y1="97.34" x2="438.27" y2="97.34" style="fill:none;stroke:#bbbdbf;stroke-miterlimit:10"/><circle cx="335.78" cy="126.98" r="3.33" style="fill:#bbbdbf"/><circle cx="342.28" cy="116.23" r="3.33" style="fill:#bbbdbf"/><circle cx="323.73" cy="132.77" r="3.33" style="fill:#bbbdbf"/><polyline points="342.28 116.23 323.73 116.23 323.73 133.69" style="fill:none;stroke:#bbbdbf;stroke-miterlimit:10"/><circle cx="238.74" cy="155.84" r="3.33" style="fill:#bbbdbf"/><line x1="238.74" y1="100.65" x2="238.74" y2="155.84" style="fill:none;stroke:#bbbdbf;stroke-miterlimit:10"/><circle cx="256.52" cy="164.87" r="3.33" style="fill:#bbbdbf"/><line x1="256.52" y1="106.37" x2="256.52" y2="164.87" style="fill:none;stroke:#bbbdbf;stroke-miterlimit:10"/><circle cx="137.97" cy="240.55" r="3.33" style="fill:#bbbdbf"/><circle cx="123.72" cy="252.44" r="3.33" style="fill:#bbbdbf"/><line x1="138" y1="240.55" x2="123.73" y2="252.53" style="fill:none;stroke:#bbbdbf;stroke-miterlimit:10"/><circle cx="270.13" cy="112.47" r="3.33" style="fill:#bbbdbf"/><circle cx="277.79" cy="106.72" r="3.33" style="fill:#bbbdbf"/><polyline points="270.1 112.47 279.68 120.51 302.01 120.51 302.01 133.33" style="fill:none;stroke:#bbbdbf;stroke-miterlimit:10"/><polyline points="277.79 106.3 287.36 114.34 307.92 114.34 307.92 134.59" style="fill:none;stroke:#bbbdbf;stroke-miterlimit:10"/><circle cx="29.81" cy="206.95" r="3.33" style="fill:#bbbdbf"/><circle cx="15.56" cy="218.83" r="3.33" style="fill:#bbbdbf"/><line x1="29.84" y1="206.95" x2="15.56" y2="218.93" style="fill:none;stroke:#bbbdbf;stroke-miterlimit:10"/><circle cx="191.04" cy="18.61" r="3.33" style="fill:#bbbdbf"/><circle cx="176.79" cy="30.5" r="3.33" style="fill:#bbbdbf"/><line x1="191.07" y1="18.61" x2="176.79" y2="30.59" style="fill:none;stroke:#bbbdbf;stroke-miterlimit:10"/><circle cx="163.15" cy="65.67" r="3.33" style="fill:#bbbdbf"/><circle cx="148.9" cy="77.55" r="3.33" style="fill:#bbbdbf"/><line x1="163.18" y1="65.67" x2="148.9" y2="77.65" style="fill:none;stroke:#bbbdbf;stroke-miterlimit:10"/><circle cx="188" cy="3.33" r="3.33" style="fill:#bbbdbf"/><circle cx="173.75" cy="15.22" r="3.33" style="fill:#bbbdbf"/><line x1="188.03" y1="3.33" x2="173.75" y2="15.31" style="fill:none;stroke:#bbbdbf;stroke-miterlimit:10"/><polyline points="438.18 59.59 342.35 59.59 324.98 74.17 284.01 74.17" style="fill:none;stroke:#bbbdbf;stroke-miterlimit:10"/><polyline points="357.76 67.91 342.35 67.91 324.98 82.48 284.01 82.48" style="fill:none;stroke:#bbbdbf;stroke-miterlimit:10"/><circle cx="391.68" cy="69.23" r="3.33" style="fill:#bbbdbf"/><circle cx="375.68" cy="69.23" r="3.33" style="fill:#bbbdbf"/><line x1="375.68" y1="69.23" x2="391.68" y2="69.23" style="fill:none;stroke:#bbbdbf;stroke-miterlimit:10"/><circle cx="431.77" cy="69.23" r="3.33" style="fill:#bbbdbf"/><circle cx="406.77" cy="69.23" r="3.33" style="fill:#bbbdbf"/><line x1="406.77" y1="69.23" x2="431.77" y2="69.23" style="fill:none;stroke:#bbbdbf;stroke-miterlimit:10"/><circle cx="350.76" cy="90.68" r="3.33" style="fill:#bbbdbf"/><circle cx="310.24" cy="90.68" r="3.33" style="fill:#bbbdbf"/><line x1="310.24" y1="90.68" x2="350.76" y2="90.68" style="fill:none;stroke:#bbbdbf;stroke-miterlimit:10"/><circle cx="357.43" cy="106.89" r="3.33" style="fill:#bbbdbf"/><circle cx="316.91" cy="106.89" r="3.33" style="fill:#bbbdbf"/><line x1="316.91" y1="106.89" x2="357.43" y2="106.89" style="fill:none;stroke:#bbbdbf;stroke-miterlimit:10"/><circle cx="433.55" cy="50.11" r="3.33" style="fill:#bbbdbf"/><circle cx="393.03" cy="50.11" r="3.33" style="fill:#bbbdbf"/><line x1="393.03" y1="50.11" x2="433.55" y2="50.11" style="fill:none;stroke:#bbbdbf;stroke-miterlimit:10"/><circle cx="403.94" cy="39.62" r="3.33" style="fill:#bbbdbf"/><circle cx="335.78" cy="39.62" r="3.33" style="fill:#bbbdbf"/><line x1="371.31" y1="39.62" x2="403.94" y2="39.62" style="fill:none;stroke:#bbbdbf;stroke-miterlimit:10"/><line x1="335.78" y1="39.62" x2="364.65" y2="39.62" style="fill:none;stroke:#bbbdbf;stroke-miterlimit:10"/><circle cx="379.64" cy="50.11" r="3.33" style="fill:#bbbdbf"/><circle cx="316.48" cy="13.31" r="3.33" style="fill:#bbbdbf"/><polyline points="379.64 50.11 316.48 50.11 316.48 13.31" style="fill:none;stroke:#bbbdbf;stroke-miterlimit:10"/><circle cx="286.45" cy="21.22" r="3.33" style="fill:#bbbdbf"/><circle cx="327.11" cy="58.02" r="3.33" style="fill:#bbbdbf"/><polyline points="327.11 58.02 286.45 58.02 286.45 21.23" style="fill:none;stroke:#bbbdbf;stroke-miterlimit:10"/><circle cx="295.8" cy="90.45" r="3.33" style="fill:#bbbdbf"/><line x1="281.23" y1="90.45" x2="295.8" y2="90.45" style="fill:none;stroke:#bbbdbf;stroke-miterlimit:10"/><circle cx="318.24" cy="67.01" r="3.33" style="fill:#bbbdbf"/><line x1="281.63" y1="67.01" x2="318.24" y2="67.01" style="fill:none;stroke:#bbbdbf;stroke-miterlimit:10"/><line x1="122.51" y1="215.51" x2="138.19" y2="215.51" style="fill:none;stroke:#bbbdbf;stroke-miterlimit:10"/><circle cx="141.52" cy="215.23" r="3.33" style="fill:none;stroke:#faaf42;stroke-miterlimit:10"/><circle cx="360.16" cy="246.92" r="3.33" style="fill:#bbbdbf"/><line x1="360.16" y1="246.92" x2="351.37" y2="246.92" style="fill:none;stroke:#bbbdbf;stroke-miterlimit:10"/><circle cx="360.16" cy="221.52" r="3.33" style="fill:#bbbdbf"/><line x1="360.16" y1="221.52" x2="351.93" y2="221.52" style="fill:none;stroke:#bbbdbf;stroke-miterlimit:10"/><line x1="354.67" y1="234.31" x2="364.83" y2="234.31" style="fill:none;stroke:#bbbdbf;stroke-miterlimit:10"/><circle cx="368.16" cy="234.03" r="3.33" style="fill:none;stroke:#faaf42;stroke-miterlimit:10"/><circle cx="220.78" cy="180.07" r="3.33" style="fill:#bbbdbf"/><circle cx="236.39" cy="177.24" r="3.33" style="fill:#bbbdbf"/><polyline points="197.11 156.77 197.11 180.07 220.78 180.07" style="fill:none;stroke:#bbbdbf;stroke-miterlimit:10"/><circle cx="68.54" cy="288.94" r="3.33" style="fill:#bbbdbf"/><circle cx="56.08" cy="247.16" r="3.33" style="fill:#bbbdbf"/><circle cx="68.54" cy="256.98" r="3.33" style="fill:#bbbdbf"/><polyline points="56.08 246.5 68.72 256.98 68.72 288.94" style="fill:none;stroke:#bbbdbf;stroke-miterlimit:10"/><circle cx="80.9" cy="299.39" r="3.33" style="fill:#bbbdbf"/><circle cx="80.9" cy="327.42" r="3.33" style="fill:#bbbdbf"/><circle cx="80.9" cy="311.75" r="3.33" style="fill:#bbbdbf"/><line x1="81.08" y1="311.75" x2="81.08" y2="327.41" style="fill:none;stroke:#bbbdbf;stroke-miterlimit:10"/><circle cx="108.4" cy="179.67" r="3.33" style="fill:#bbbdbf"/><line x1="108.58" y1="179.67" x2="108.58" y2="191.38" style="fill:none;stroke:#bbbdbf;stroke-miterlimit:10"/><circle cx="90.7" cy="274.49" r="3.33" style="fill:#bbbdbf"/><line x1="90.7" y1="274.49" x2="90.7" y2="331.6" style="fill:none;stroke:#bbbdbf;stroke-miterlimit:10"/><polyline points="141.47 186.79 187.25 186.79 187.25 160.86" style="fill:none;stroke:#bbbdbf;stroke-miterlimit:10"/><circle cx="132.67" cy="176.73" r="3.33" style="fill:#bbbdbf"/><polyline points="132.67 176.73 178.31 176.73 178.31 157.7" style="fill:none;stroke:#bbbdbf;stroke-miterlimit:10"/><circle cx="90.7" cy="334.93" r="3.33" style="fill:none;stroke:#faaf42;stroke-miterlimit:10"/><polyline points="100.5 283.56 147.79 243.87 147.79 228.43" style="fill:none;stroke:#bbbdbf;stroke-miterlimit:10"/><circle cx="187.17" cy="142.57" r="18.07" transform="translate(-45.99 174.12) rotate(-45)" style="fill:none;stroke:#929497;stroke-miterlimit:10"/><path d="M183,140.34a2.36,2.36,0,0,0,4.39-1.21,2.32,2.32,0,0,0-.4-1.27,5.3,5.3,0,1,1,4.67,2.67,2.25,2.25,0,0,0-2.26,2.27,2.31,2.31,0,0,0,2.32,2.28h0a5.35,5.35,0,0,1,5.36,5.28,5.28,5.28,0,1,1-10-2.46,2.3,2.3,0,0,0-4-2.22,5.47,5.47,0,0,1-4.72,2.71,5.28,5.28,0,1,1,0-10.56A5.45,5.45,0,0,1,183,140.34Z" style="fill:none;stroke:#f69321;stroke-miterlimit:10;stroke-width:0.75px"/><circle cx="441.52" cy="59.34" r="3.33" style="fill:none;stroke:#faaf42;stroke-miterlimit:10"/><circle cx="361.1" cy="67.66" r="3.33" style="fill:none;stroke:#faaf42;stroke-miterlimit:10"/><polyline points="236.39 177.24 247.25 168.13 247.25 105.34" style="fill:none;stroke:#bbbdbf;stroke-miterlimit:10"/><circle cx="399.56" cy="333.5" r="3.33" style="fill:#bbbdbf"/><circle cx="399.56" cy="291.24" r="3.33" style="fill:#bbbdbf"/><circle cx="471.35" cy="305.71" r="3.33" style="fill:#bbbdbf"/><circle cx="428.69" cy="304.92" r="3.33" style="fill:#bbbdbf"/><circle cx="348.95" cy="261.28" r="3.33" style="fill:#bbbdbf"/><circle cx="326.9" cy="273.32" r="3.33" style="fill:#bbbdbf"/><circle cx="283.74" cy="226.74" r="3.33" style="fill:#bbbdbf"/><circle cx="360.85" cy="266.88" r="3.33" style="fill:#bbbdbf"/><circle cx="383.72" cy="266.88" r="3.33" style="fill:#bbbdbf"/><line x1="362.6" y1="266.88" x2="385.22" y2="266.88" style="fill:none;stroke:#bbbdbf;stroke-miterlimit:10"/><circle cx="287.08" cy="243.07" r="3.33" style="fill:#bbbdbf"/><line x1="288.83" y1="243.07" x2="301.33" y2="243.07" style="fill:none;stroke:#bbbdbf;stroke-miterlimit:10"/><circle cx="293.17" cy="252.53" r="3.33" style="fill:#bbbdbf"/><line x1="294.92" y1="252.54" x2="306.66" y2="252.54" style="fill:none;stroke:#bbbdbf;stroke-miterlimit:10"/><circle cx="383.72" cy="355.79" r="3.33" style="fill:#bbbdbf"/><line x1="383.72" y1="331.76" x2="383.72" y2="357.91" style="fill:none;stroke:#bbbdbf;stroke-miterlimit:10"/><circle cx="391.25" cy="344.39" r="3.33" style="fill:#bbbdbf"/><line x1="391.25" y1="330.55" x2="391.25" y2="346.51" style="fill:none;stroke:#bbbdbf;stroke-miterlimit:10"/><circle cx="357.85" cy="324.39" r="3.33" style="fill:#bbbdbf"/><line x1="357.85" y1="324.39" x2="369.7" y2="324.39" style="fill:none;stroke:#bbbdbf;stroke-miterlimit:10"/><circle cx="351.27" cy="313.69" r="3.33" style="fill:#bbbdbf"/><line x1="351.27" y1="313.69" x2="366.35" y2="313.69" style="fill:none;stroke:#bbbdbf;stroke-miterlimit:10"/><circle cx="357.85" cy="302.99" r="3.33" style="fill:#bbbdbf"/><line x1="357.85" y1="302.99" x2="369.86" y2="302.99" style="fill:none;stroke:#bbbdbf;stroke-miterlimit:10"/><circle cx="317.38" cy="187.65" r="3.33" style="fill:#bbbdbf"/><line x1="317.38" y1="187.65" x2="317.38" y2="208.59" style="fill:none;stroke:#bbbdbf;stroke-miterlimit:10"/><circle cx="327.08" cy="197.25" r="3.33" style="fill:#bbbdbf"/><line x1="327.08" y1="197.25" x2="327.08" y2="206.83" style="fill:none;stroke:#bbbdbf;stroke-miterlimit:10"/><circle cx="335.1" cy="187.31" r="3.33" style="fill:#bbbdbf"/><line x1="335.1" y1="187.31" x2="335.1" y2="208.1" style="fill:none;stroke:#bbbdbf;stroke-miterlimit:10"/><circle cx="364.52" cy="334.47" r="3.33" transform="translate(-126.01 398.65) rotate(-49.99)" style="fill:#bbbdbf"/><circle cx="374.88" cy="343.16" r="3.33" transform="translate(-128.95 409.84) rotate(-50.01)" style="fill:#bbbdbf"/><line x1="364.52" y1="334.46" x2="374.88" y2="343.16" style="fill:none;stroke:#bbbdbf;stroke-miterlimit:10"/><circle cx="458.88" cy="308.65" r="3.33" transform="translate(-72.54 461.7) rotate(-49.99)" style="fill:#bbbdbf"/><circle cx="469.25" cy="317.35" r="3.33" transform="translate(-75.46 472.91) rotate(-50.01)" style="fill:#bbbdbf"/><line x1="458.88" y1="308.65" x2="469.25" y2="317.35" style="fill:none;stroke:#bbbdbf;stroke-miterlimit:10"/><circle cx="330.6" cy="286.89" r="3.33" transform="translate(-101.68 355.68) rotate(-49.99)" style="fill:#bbbdbf"/><circle cx="340.97" cy="295.59" r="3.33" transform="translate(-104.62 366.86) rotate(-50.01)" style="fill:#bbbdbf"/><line x1="330.6" y1="286.89" x2="340.97" y2="295.59" style="fill:none;stroke:#bbbdbf;stroke-miterlimit:10"/><circle cx="409.59" cy="349.98" r="3.33" transform="translate(-121.8 438.71) rotate(-49.99)" style="fill:#bbbdbf"/><circle cx="419.96" cy="358.68" r="3.33" transform="translate(-124.73 449.93) rotate(-50.01)" style="fill:#bbbdbf"/><line x1="409.59" y1="349.98" x2="419.96" y2="358.67" style="fill:none;stroke:#bbbdbf;stroke-miterlimit:10"/><circle cx="432.02" cy="364.43" r="3.33" style="fill:#bbbdbf"/><line x1="432.02" y1="364.43" x2="432.02" y2="347.56" style="fill:none;stroke:#bbbdbf;stroke-miterlimit:10"/><circle cx="432.02" cy="344.23" r="3.33" style="fill:none;stroke:#faaf42;stroke-miterlimit:10"/><circle cx="498.25" cy="397.06" r="3.33" style="fill:#bbbdbf"/><line x1="498.25" y1="397.06" x2="498.25" y2="374.11" style="fill:none;stroke:#bbbdbf;stroke-miterlimit:10"/><circle cx="498.25" cy="370.79" r="3.33" style="fill:none;stroke:#faaf42;stroke-miterlimit:10"/><circle cx="480.25" cy="387.26" r="3.33" style="fill:#bbbdbf"/><line x1="480.25" y1="387.26" x2="480.25" y2="360.99" style="fill:none;stroke:#bbbdbf;stroke-miterlimit:10"/><circle cx="480.25" cy="360.99" r="3.33" style="fill:#bbbdbf"/><circle cx="391.25" cy="277.69" r="3.33" style="fill:#bbbdbf"/><circle cx="317.43" cy="284.01" r="3.33" style="fill:#bbbdbf"/><line x1="317.43" y1="259.57" x2="317.43" y2="284.01" style="fill:none;stroke:#bbbdbf;stroke-miterlimit:10"/><polyline points="283.74 226.74 292.97 234.48 299.87 234.48" style="fill:none;stroke:#bbbdbf;stroke-miterlimit:10"/><circle cx="408.55" cy="301.59" r="3.33" style="fill:#bbbdbf"/><circle cx="421.01" cy="346.64" r="3.33" style="fill:#bbbdbf"/><circle cx="408.55" cy="336.83" r="3.33" style="fill:#bbbdbf"/><polyline points="421.01 347.31 408.36 336.83 408.36 301.59" style="fill:none;stroke:#bbbdbf;stroke-miterlimit:10"/><polyline points="361.08 284.96 384.27 284.96 384.27 295.59" style="fill:none;stroke:#bbbdbf;stroke-miterlimit:10"/><polyline points="326.89 261.62 326.89 273.26 340.83 284.96 354 284.96" style="fill:none;stroke:#bbbdbf;stroke-miterlimit:10"/><circle cx="357.52" cy="284.84" r="3.33" style="fill:none;stroke:#faaf42;stroke-miterlimit:10"/><circle cx="364.18" cy="347.72" r="3.33" style="fill:none;stroke:#faaf42;stroke-miterlimit:10"/><circle cx="417.67" cy="294.75" r="3.33" style="fill:#bbbdbf"/><line x1="417.67" y1="321.64" x2="417.67" y2="294.75" style="fill:none;stroke:#bbbdbf;stroke-miterlimit:10"/><circle cx="417.68" cy="324.97" r="3.33" style="fill:none;stroke:#faaf42;stroke-miterlimit:10"/><polyline points="335.08 260.49 335.08 269.37 344.54 277.24 391.25 277.24 391.25 297.02" style="fill:none;stroke:#bbbdbf;stroke-miterlimit:10"/><circle cx="384.42" cy="313.69" r="18.07" transform="translate(-109.22 363.73) rotate(-45)" style="fill:none;stroke:#929497;stroke-miterlimit:10"/><path d="M384.4,300.22l8.11,13.46-8.11,4.85-8.06-4.84,8.06-13.46m0-1.26-8.95,14.95,8.95,5.38,9-5.38-9-14.95h0Z" style="fill:#f69321"/><path d="M391.12,317.79l-6.7,9.5-6.7-9.5,6.37,3.77a0.65,0.65,0,0,0,.66,0l6.37-3.77m2.28-2.1-9,5.31-9-5.31,9,12.73,9-12.73h0Z" style="fill:#f69321"/><line x1="384.42" y1="321.33" x2="384.42" y2="327.08" style="fill:none;stroke:#f69321;stroke-linejoin:round;stroke-width:0.65px"/><line x1="384.4" y1="300.28" x2="384.4" y2="318.62" style="fill:none;stroke:#f69321;stroke-linejoin:round;stroke-width:0.65px"/><polyline points="376.29 313.53 384.4 309.86 392.58 313.54" style="fill:none;stroke:#f69321;stroke-linecap:round;stroke-linejoin:round;stroke-width:0.65px"/><circle cx="282.23" cy="212.69" r="3.33" style="fill:#bbbdbf"/><circle cx="262.68" cy="196.56" r="3.33" style="fill:#bbbdbf"/><line x1="282.23" y1="212.69" x2="262.68" y2="196.29" style="fill:none;stroke:#bbbdbf;stroke-miterlimit:10"/><circle cx="230.97" cy="104.01" r="3.33" style="fill:#bbbdbf"/><circle cx="217.26" cy="92.5" r="3.33" style="fill:#bbbdbf"/><line x1="230.97" y1="104.01" x2="217.26" y2="92.5" style="fill:none;stroke:#bbbdbf;stroke-miterlimit:10"/><circle cx="88.95" cy="75.43" r="3.33" style="fill:#bbbdbf"/><circle cx="75.24" cy="63.92" r="3.33" style="fill:#bbbdbf"/><line x1="88.96" y1="75.43" x2="75.24" y2="63.92" style="fill:none;stroke:#bbbdbf;stroke-miterlimit:10"/><circle cx="88.95" cy="59.13" r="3.33" style="fill:#bbbdbf"/><circle cx="75.24" cy="47.62" r="3.33" style="fill:#bbbdbf"/><line x1="88.96" y1="59.13" x2="75.24" y2="47.62" style="fill:none;stroke:#bbbdbf;stroke-miterlimit:10"/><circle cx="66.43" cy="189.68" r="3.33" style="fill:#bbbdbf"/><circle cx="56.11" cy="181.02" r="3.33" style="fill:#bbbdbf"/><line x1="66.42" y1="189.68" x2="56.11" y2="181.02" style="fill:none;stroke:#bbbdbf;stroke-miterlimit:10"/><polyline points="319.37 151.87 331.6 151.87 385.05 107.34 385.05 87.23" style="fill:none;stroke:#bbbdbf;stroke-miterlimit:10"/><polyline points="317.88 144.23 328.23 144.23 376.25 104.22 376.25 79.78" style="fill:none;stroke:#bbbdbf;stroke-miterlimit:10"/><circle cx="298.68" cy="209.83" r="3.33" style="fill:#bbbdbf"/><line x1="298.68" y1="209.83" x2="284.91" y2="198.27" style="fill:none;stroke:#bbbdbf;stroke-miterlimit:10"/><circle cx="282.23" cy="196.29" r="3.33" style="fill:none;stroke:#faaf42;stroke-miterlimit:10"/><circle cx="29.79" cy="220.61" r="3.33" style="fill:#bbbdbf"/><circle cx="49.33" cy="186.84" r="3.33" style="fill:#bbbdbf"/><polyline points="49.34 186.51 49.34 204.22 29.79 220.61" style="fill:none;stroke:#bbbdbf;stroke-miterlimit:10"/><circle cx="392.63" cy="130.32" r="3.33" style="fill:#bbbdbf"/><polyline points="392.66 130.32 378.38 142.31 378.38 157.31" style="fill:none;stroke:#bbbdbf;stroke-miterlimit:10"/><circle cx="378.38" cy="160.65" r="3.33" style="fill:none;stroke:#faaf42;stroke-miterlimit:10"/><circle cx="389.52" cy="115.59" r="3.33" style="fill:#bbbdbf"/><circle cx="352.93" cy="146.25" r="3.33" style="fill:#bbbdbf"/><line x1="352.93" y1="146.25" x2="389.7" y2="115.4" style="fill:none;stroke:#bbbdbf;stroke-miterlimit:10"/><polyline points="61.01 169.18 80.56 185.58 80.56 192.6" style="fill:none;stroke:#bbbdbf;stroke-miterlimit:10"/><polyline points="90.81 188.53 90.81 179.08 77.3 167.75 77.3 111.67" style="fill:none;stroke:#bbbdbf;stroke-miterlimit:10"/><polyline points="100.31 188.52 100.31 175.34 89.72 166.46 89.72 150.6" style="fill:none;stroke:#bbbdbf;stroke-miterlimit:10"/><circle cx="95.6" cy="215.51" r="27.4" transform="translate(-124.39 130.73) rotate(-45)" style="fill:none;stroke:#929497;stroke-miterlimit:10"/><path d="M111.84,209.19v14.6a2.69,2.69,0,0,1-2.69,2.69H80.57a2.69,2.69,0,0,1-2.69-2.69V206a2.69,2.69,0,0,1,2.69-2.69h25.21Z" style="fill:none;stroke:#f69321;stroke-miterlimit:10;stroke-width:0.75px;fill-rule:evenodd"/><circle cx="87.51" cy="214.89" r="6.05" style="fill:none;stroke:#f69321;stroke-miterlimit:10;stroke-width:0.75px"/><path d="M90.42,220.07a6.06,6.06,0,0,1-2.9-5.25,6.06,6.06,0,0,0-2.9-5.25" style="fill:none;stroke:#f69321;stroke-miterlimit:10;stroke-width:0.75px;fill-rule:evenodd"/><path d="M93.28,216.48a6.07,6.07,0,0,1-5.76-1.66,6.06,6.06,0,0,0-5.76-1.66" style="fill:none;stroke:#f69321;stroke-miterlimit:10;stroke-width:0.75px;fill-rule:evenodd"/><path d="M92.76,211.92a6.07,6.07,0,0,1-5.25,2.91,6.06,6.06,0,0,0-5.25,2.9" style="fill:none;stroke:#f69321;stroke-miterlimit:10;stroke-width:0.75px;fill-rule:evenodd"/><path d="M89.17,209.06a6.08,6.08,0,0,1-1.66,5.76,6.05,6.05,0,0,0-1.66,5.76" style="fill:none;stroke:#f69321;stroke-miterlimit:10;stroke-width:0.75px;fill-rule:evenodd"/><circle cx="102.21" cy="214.89" r="6.05" style="fill:none;stroke:#f69321;stroke-miterlimit:10;stroke-width:0.75px"/><path d="M105.11,220.07a6.06,6.06,0,0,1-2.9-5.25,6.06,6.06,0,0,0-2.9-5.25" style="fill:none;stroke:#f69321;stroke-miterlimit:10;stroke-width:0.75px;fill-rule:evenodd"/><path d="M108,216.48a6.07,6.07,0,0,1-5.76-1.66,6.06,6.06,0,0,0-5.76-1.66" style="fill:none;stroke:#f69321;stroke-miterlimit:10;stroke-width:0.75px;fill-rule:evenodd"/><path d="M107.46,211.92a6.07,6.07,0,0,1-5.25,2.91,6.06,6.06,0,0,0-5.25,2.9" style="fill:none;stroke:#f69321;stroke-miterlimit:10;stroke-width:0.75px;fill-rule:evenodd"/><path d="M103.87,209.06a6.07,6.07,0,0,1-1.66,5.76,6.06,6.06,0,0,0-1.66,5.76" style="fill:none;stroke:#f69321;stroke-miterlimit:10;stroke-width:0.75px;fill-rule:evenodd"/><polyline points="111.84 229.15 111.84 204.84 115.11 204.84" style="fill:none;stroke:#f69321;stroke-miterlimit:10;stroke-width:0.75px;fill-rule:evenodd"/><line x1="111.84" y1="212.99" x2="113.21" y2="212.99" style="fill:none;stroke:#f69321;stroke-miterlimit:10;stroke-width:0.75px"/><line x1="111.84" y1="222.24" x2="113.21" y2="222.24" style="fill:none;stroke:#f69321;stroke-miterlimit:10;stroke-width:0.75px"/><path d="M111.84,214.82h1.25a0.9,0.9,0,0,1,.9.9v3.45a0.9,0.9,0,0,1-.9.9h-1.25" style="fill:none;stroke:#f69321;stroke-miterlimit:10;stroke-width:0.75px"/><circle cx="77.3" cy="99.9" r="3.33" style="fill:#bbbdbf"/><line x1="77.3" y1="99.9" x2="89.07" y2="99.9" style="fill:none;stroke:#bbbdbf;stroke-miterlimit:10"/><circle cx="55.17" cy="69.07" r="3.33" style="fill:#bbbdbf"/><polyline points="55.17 69.07 81.23 90.94 91.19 90.94" style="fill:none;stroke:#bbbdbf;stroke-miterlimit:10"/><circle cx="175.87" cy="68.74" r="3.33" style="fill:#bbbdbf"/><polyline points="175.87 68.74 149.81 90.6 146.21 90.6" style="fill:none;stroke:#bbbdbf;stroke-miterlimit:10"/><polyline points="148.53 101.13 152.5 101.13 192.58 67.5 229.82 67.5" style="fill:none;stroke:#bbbdbf;stroke-miterlimit:10"/><polyline points="147.19 111.14 154.15 111.14 197.58 74.7 227.88 74.7" style="fill:none;stroke:#bbbdbf;stroke-miterlimit:10"/><circle cx="118.77" cy="102.22" r="29.79" transform="translate(-37.49 113.92) rotate(-45)" style="fill:none;stroke:#929497;stroke-miterlimit:10"/><path d="M137.93,114.91a1.42,1.42,0,0,1-1.42,1.42H101.18a1.42,1.42,0,0,1-1.42-1.42L99.6,89.53A1.42,1.42,0,0,1,101,88.11h35.33a1.42,1.42,0,0,1,1.42,1.42Z" style="fill:none;stroke:#f69321;stroke-miterlimit:10"/><line x1="99.6" y1="111.91" x2="137.76" y2="111.91" style="fill:none;stroke:#f69321;stroke-miterlimit:10;stroke-width:0.75px"/><line x1="116.93" y1="114.28" x2="120.43" y2="114.28" style="fill:none;stroke:#f69321;stroke-miterlimit:10;stroke-width:0.5px"/><line x1="111.33" y1="120.91" x2="126.2" y2="120.91" style="fill:none;stroke:#f69321;stroke-miterlimit:10;stroke-width:0.75px"/><line x1="113.89" y1="120.91" x2="115.52" y2="116.32" style="fill:none;stroke:#f69321;stroke-miterlimit:10;stroke-width:0.75px"/><line x1="123.64" y1="120.91" x2="122.01" y2="116.32" style="fill:none;stroke:#f69321;stroke-miterlimit:10;stroke-width:0.75px"/><path d="M114.23,104.17h6.17a2.19,2.19,0,1,0,0-4.37l-3.78,0,3.78,0a2.19,2.19,0,1,0,0-4.37h-6.17" style="fill:none;stroke:#f69321;stroke-miterlimit:10;stroke-width:0.75px"/><line x1="116.62" y1="95.33" x2="116.62" y2="104.17" style="fill:none;stroke:#f69321;stroke-miterlimit:10;stroke-width:0.75px"/><line x1="117.22" y1="95.25" x2="117.22" y2="92.09" style="fill:none;stroke:#f69321;stroke-miterlimit:10;stroke-width:0.75px"/><line x1="119.78" y1="95.25" x2="119.78" y2="92.09" style="fill:none;stroke:#f69321;stroke-miterlimit:10;stroke-width:0.75px"/><line x1="117.22" y1="107.42" x2="117.22" y2="104.17" style="fill:none;stroke:#f69321;stroke-miterlimit:10;stroke-width:0.75px"/><line x1="119.78" y1="107.42" x2="119.78" y2="104.17" style="fill:none;stroke:#f69321;stroke-miterlimit:10;stroke-width:0.75px"/><path d="M110.24,93.73a0.61,0.61,0,0,1-.61.6h-0.45a0.61,0.61,0,0,1-.61-0.6v-2a0.61,0.61,0,0,1,.61-0.6h0.45a0.61,0.61,0,0,1,.61.6v2Z" style="fill:none;stroke:#f69321;stroke-miterlimit:10;stroke-width:0.75px"/><path d="M111.92,103.92a0.61,0.61,0,0,1-.61.6h-0.45a0.61,0.61,0,0,1-.61-0.6v-2a0.61,0.61,0,0,1,.61-0.6h0.45a0.61,0.61,0,0,1,.61.6v2Z" style="fill:none;stroke:#f69321;stroke-miterlimit:10;stroke-width:0.75px"/><path d="M105,106.79a0.61,0.61,0,0,1-.61.6H104a0.61,0.61,0,0,1-.61-0.6v-2a0.61,0.61,0,0,1,.61-0.6h0.45a0.61,0.61,0,0,1,.61.6v2Z" style="fill:none;stroke:#f69321;stroke-miterlimit:10;stroke-width:0.75px"/><path d="M128.09,93.73a0.61,0.61,0,0,1-.61.6H127a0.61,0.61,0,0,1-.61-0.6v-2a0.61,0.61,0,0,1,.61-0.6h0.45a0.61,0.61,0,0,1,.61.6v2Z" style="fill:none;stroke:#f69321;stroke-miterlimit:10;stroke-width:0.75px"/><path d="M135.18,108.39a0.61,0.61,0,0,1-.61.6h-0.45a0.61,0.61,0,0,1-.61-0.6v-2a0.61,0.61,0,0,1,.61-0.6h0.45a0.61,0.61,0,0,1,.61.6v2Z" style="fill:none;stroke:#f69321;stroke-miterlimit:10;stroke-width:0.75px"/><line x1="102.62" y1="92.73" x2="102.62" y2="96.16" style="fill:none;stroke:#f69321;stroke-linecap:round;stroke-miterlimit:10;stroke-width:0.75px"/><line x1="106.9" y1="98.16" x2="106.9" y2="101.59" style="fill:none;stroke:#f69321;stroke-linecap:round;stroke-miterlimit:10;stroke-width:0.75px"/><line x1="126.41" y1="105.68" x2="126.41" y2="109.11" style="fill:none;stroke:#f69321;stroke-linecap:round;stroke-miterlimit:10;stroke-width:0.75px"/><line x1="129.19" y1="98.16" x2="129.19" y2="101.59" style="fill:none;stroke:#f69321;stroke-linecap:round;stroke-miterlimit:10;stroke-width:0.75px"/><line x1="134.34" y1="92.62" x2="134.34" y2="96.04" style="fill:none;stroke:#f69321;stroke-linecap:round;stroke-miterlimit:10;stroke-width:0.75px"/><circle cx="255.85" cy="78.28" r="28.16" transform="translate(19.59 203.85) rotate(-45)" style="fill:none;stroke:#929497;stroke-miterlimit:10"/><rect x="243.68" y="66.07" width="24.33" height="24.33" style="fill:none;stroke:#f69321;stroke-miterlimit:10"/><rect x="246.85" y="69.23" width="18" height="18" style="fill:none;stroke:#f69321;stroke-miterlimit:10"/><path d="M254,76a0.91,0.91,0,0,1-.92.91h-0.68a0.91,0.91,0,0,1-.92-0.91v-3a0.91,0.91,0,0,1,.92-0.91h0.68a0.91,0.91,0,0,1,.92.91v3Z" style="fill:none;stroke:#f69321;stroke-miterlimit:10;stroke-width:0.75px"/><line x1="258.97" y1="72.24" x2="258.97" y2="76.95" style="fill:none;stroke:#f69321;stroke-linecap:round;stroke-miterlimit:10;stroke-width:0.75px"/><path d="M257.66,80.51a0.91,0.91,0,0,1,.92-0.91h0.68a0.91,0.91,0,0,1,.92.91v3a0.91,0.91,0,0,1-.92.91h-0.68a0.91,0.91,0,0,1-.92-0.91v-3Z" style="fill:none;stroke:#f69321;stroke-miterlimit:10;stroke-width:0.75px"/><line x1="252.73" y1="84.32" x2="252.73" y2="79.6" style="fill:none;stroke:#f69321;stroke-linecap:round;stroke-miterlimit:10;stroke-width:0.75px"/><line x1="245.85" y1="66.07" x2="245.85" y2="60.73" style="fill:none;stroke:#f69321;stroke-miterlimit:10;stroke-width:0.75px"/><line x1="249.18" y1="66.07" x2="249.18" y2="60.73" style="fill:none;stroke:#f69321;stroke-miterlimit:10;stroke-width:0.75px"/><line x1="252.52" y1="66.07" x2="252.52" y2="60.73" style="fill:none;stroke:#f69321;stroke-miterlimit:10;stroke-width:0.75px"/><line x1="255.85" y1="66.07" x2="255.85" y2="60.73" style="fill:none;stroke:#f69321;stroke-miterlimit:10;stroke-width:0.75px"/><line x1="259.18" y1="66.07" x2="259.18" y2="60.73" style="fill:none;stroke:#f69321;stroke-miterlimit:10;stroke-width:0.75px"/><line x1="262.52" y1="66.07" x2="262.52" y2="60.73" style="fill:none;stroke:#f69321;stroke-miterlimit:10;stroke-width:0.75px"/><line x1="265.85" y1="66.07" x2="265.85" y2="60.73" style="fill:none;stroke:#f69321;stroke-miterlimit:10;stroke-width:0.75px"/><line x1="245.85" y1="95.82" x2="245.85" y2="90.48" style="fill:none;stroke:#f69321;stroke-miterlimit:10;stroke-width:0.75px"/><line x1="249.18" y1="95.82" x2="249.18" y2="90.48" style="fill:none;stroke:#f69321;stroke-miterlimit:10;stroke-width:0.75px"/><line x1="252.52" y1="95.82" x2="252.52" y2="90.48" style="fill:none;stroke:#f69321;stroke-miterlimit:10;stroke-width:0.75px"/><line x1="255.85" y1="95.82" x2="255.85" y2="90.48" style="fill:none;stroke:#f69321;stroke-miterlimit:10;stroke-width:0.75px"/><line x1="259.18" y1="95.82" x2="259.18" y2="90.48" style="fill:none;stroke:#f69321;stroke-miterlimit:10;stroke-width:0.75px"/><line x1="262.52" y1="95.82" x2="262.52" y2="90.48" style="fill:none;stroke:#f69321;stroke-miterlimit:10;stroke-width:0.75px"/><line x1="265.85" y1="95.82" x2="265.85" y2="90.48" style="fill:none;stroke:#f69321;stroke-miterlimit:10;stroke-width:0.75px"/><line x1="243.64" y1="88.28" x2="238.31" y2="88.28" style="fill:none;stroke:#f69321;stroke-miterlimit:10;stroke-width:0.75px"/><line x1="243.64" y1="84.94" x2="238.31" y2="84.94" style="fill:none;stroke:#f69321;stroke-miterlimit:10;stroke-width:0.75px"/><line x1="243.64" y1="81.61" x2="238.31" y2="81.61" style="fill:none;stroke:#f69321;stroke-miterlimit:10;stroke-width:0.75px"/><line x1="243.64" y1="78.28" x2="238.31" y2="78.28" style="fill:none;stroke:#f69321;stroke-miterlimit:10;stroke-width:0.75px"/><line x1="243.64" y1="74.94" x2="238.31" y2="74.94" style="fill:none;stroke:#f69321;stroke-miterlimit:10;stroke-width:0.75px"/><line x1="243.64" y1="71.61" x2="238.31" y2="71.61" style="fill:none;stroke:#f69321;stroke-miterlimit:10;stroke-width:0.75px"/><line x1="243.64" y1="68.28" x2="238.31" y2="68.28" style="fill:none;stroke:#f69321;stroke-miterlimit:10;stroke-width:0.75px"/><line x1="273.39" y1="88.28" x2="268.06" y2="88.28" style="fill:none;stroke:#f69321;stroke-miterlimit:10;stroke-width:0.75px"/><line x1="273.39" y1="84.94" x2="268.06" y2="84.94" style="fill:none;stroke:#f69321;stroke-miterlimit:10;stroke-width:0.75px"/><line x1="273.39" y1="81.61" x2="268.06" y2="81.61" style="fill:none;stroke:#f69321;stroke-miterlimit:10;stroke-width:0.75px"/><line x1="273.39" y1="78.28" x2="268.06" y2="78.28" style="fill:none;stroke:#f69321;stroke-miterlimit:10;stroke-width:0.75px"/><line x1="273.39" y1="74.94" x2="268.06" y2="74.94" style="fill:none;stroke:#f69321;stroke-miterlimit:10;stroke-width:0.75px"/><line x1="273.39" y1="71.61" x2="268.06" y2="71.61" style="fill:none;stroke:#f69321;stroke-miterlimit:10;stroke-width:0.75px"/><line x1="273.39" y1="68.28" x2="268.06" y2="68.28" style="fill:none;stroke:#f69321;stroke-miterlimit:10;stroke-width:0.75px"/><circle cx="286.55" cy="99.8" r="3.33" style="fill:#bbbdbf"/><circle cx="364.43" cy="79.78" r="3.33" style="fill:#bbbdbf"/><polyline points="286.55 99.8 364.43 99.8 364.43 79.78" style="fill:none;stroke:#bbbdbf;stroke-miterlimit:10"/><circle cx="367.98" cy="39.62" r="3.33" style="fill:none;stroke:#faaf42;stroke-miterlimit:10"/><circle cx="68.2" cy="240.57" r="3.33" style="fill:none;stroke:#faaf42;stroke-miterlimit:10"/><polyline points="295.32 168.33 295.32 187.49 283.79 178.5 260.74 178.5" style="fill:none;stroke:#bbbdbf;stroke-miterlimit:10"/><circle cx="306.78" cy="23.46" r="3.33" style="fill:#bbbdbf"/><line x1="306.78" y1="25.21" x2="306.78" y2="35.09" style="fill:none;stroke:#bbbdbf;stroke-miterlimit:10"/><circle cx="306.78" cy="38.43" r="3.33" style="fill:none;stroke:#faaf42;stroke-miterlimit:10"/><circle cx="464.37" cy="81.65" r="3.33" style="fill:#bbbdbf"/><line x1="464.37" y1="79.9" x2="464.37" y2="70.02" style="fill:none;stroke:#bbbdbf;stroke-miterlimit:10"/><circle cx="464.37" cy="66.68" r="3.33" style="fill:none;stroke:#faaf42;stroke-miterlimit:10"/><circle cx="464.37" cy="51.85" r="3.33" transform="translate(126.12 374.21) rotate(-49.99)" style="fill:#bbbdbf"/><circle cx="474.74" cy="60.55" r="3.33" transform="translate(123.25 385.36) rotate(-50.01)" style="fill:#bbbdbf"/><line x1="464.37" y1="51.85" x2="474.74" y2="60.55" style="fill:none;stroke:#bbbdbf;stroke-miterlimit:10"/><circle cx="286.06" cy="129.76" r="3.33" style="fill:#bbbdbf"/><line x1="268.71" y1="129.76" x2="286.05" y2="129.76" style="fill:none;stroke:#bbbdbf;stroke-miterlimit:10"/><circle cx="264.85" cy="129.76" r="3.33" style="fill:none;stroke:#faaf42;stroke-miterlimit:10"/><circle cx="316.48" cy="123.65" r="3.33" style="fill:none;stroke:#faaf42;stroke-miterlimit:10"/><circle cx="489.4" cy="355.79" r="3.33" style="fill:#bbbdbf"/><circle cx="489.4" cy="387.26" r="3.33" style="fill:#bbbdbf"/><line x1="489.4" y1="355.79" x2="489.4" y2="387.26" style="fill:none;stroke:#bbbdbf;stroke-miterlimit:10"/><circle cx="301.29" cy="151.41" r="18.07" transform="translate(-18.81 257.4) rotate(-45)" style="fill:none;stroke:#929497;stroke-miterlimit:10"/><polygon points="299.58 157.32 300.77 151.38 307.11 147.11 307.52 143.74 301.49 147.8 303.18 139.4 298.36 139.4 295.92 151.56 292.99 153.54 292.57 156.92 295.2 155.15 293.94 161.42 297.83 161.42 298.76 161.42 309.28 161.42 310.01 157.32 299.58 157.32" style="fill:none;stroke:#f69321;stroke-miterlimit:10;stroke-width:0.75px"/><circle cx="327.27" cy="234.22" r="27.4" transform="translate(-69.76 300.03) rotate(-45)" style="fill:none;stroke:#929497;stroke-miterlimit:10"/><polygon points="323.41 228.31 323.41 220.77 316.15 220.77 313.8 223.74 313.8 231.27 321.33 231.27 323.41 228.31" style="fill:none;stroke:#f69321;stroke-miterlimit:10;stroke-width:0.75px"/><polyline points="313.8 223.74 321.33 223.74 321.33 231.27" style="fill:none;stroke:#f69321;stroke-miterlimit:10;stroke-width:0.75px"/><line x1="321.34" y1="223.74" x2="323.41" y2="220.77" style="fill:none;stroke:#f69321;stroke-miterlimit:10;stroke-width:0.75px"/><polygon points="340.74 228.31 340.74 220.77 333.48 220.77 331.13 223.74 331.13 231.27 338.67 231.27 340.74 228.31" style="fill:none;stroke:#f69321;stroke-miterlimit:10;stroke-width:0.75px"/><polyline points="331.13 223.74 338.67 223.74 338.67 231.27" style="fill:none;stroke:#f69321;stroke-miterlimit:10;stroke-width:0.75px"/><line x1="338.67" y1="223.74" x2="340.74" y2="220.77" style="fill:none;stroke:#f69321;stroke-miterlimit:10;stroke-width:0.75px"/><line x1="322.37" y1="226.02" x2="331.13" y2="226.02" style="fill:none;stroke:#f69321;stroke-linecap:round;stroke-miterlimit:10;stroke-width:0.75px"/><polygon points="323.41 246.7 323.41 239.16 316.15 239.16 313.8 242.13 313.8 249.66 321.33 249.66 323.41 246.7" style="fill:none;stroke:#f69321;stroke-miterlimit:10;stroke-width:0.75px"/><polyline points="313.8 242.13 321.33 242.13 321.33 249.66" style="fill:none;stroke:#f69321;stroke-miterlimit:10;stroke-width:0.75px"/><line x1="321.34" y1="242.13" x2="323.41" y2="239.16" style="fill:none;stroke:#f69321;stroke-miterlimit:10;stroke-width:0.75px"/><polygon points="340.74 246.7 340.74 239.16 333.48 239.16 331.13 242.13 331.13 249.66 338.67 249.66 340.74 246.7" style="fill:none;stroke:#f69321;stroke-miterlimit:10;stroke-width:0.75px"/><polyline points="331.13 242.13 338.67 242.13 338.67 249.66" style="fill:none;stroke:#f69321;stroke-miterlimit:10;stroke-width:0.75px"/><line x1="338.67" y1="242.13" x2="340.74" y2="239.16" style="fill:none;stroke:#f69321;stroke-miterlimit:10;stroke-width:0.75px"/><line x1="322.37" y1="244.41" x2="331.13" y2="244.41" style="fill:none;stroke:#f69321;stroke-linecap:round;stroke-miterlimit:10;stroke-width:0.75px"/><line x1="318.93" y1="231.27" x2="318.93" y2="240.65" style="fill:none;stroke:#f69321;stroke-linecap:round;stroke-miterlimit:10;stroke-width:0.75px"/><line x1="336.26" y1="231.27" x2="336.26" y2="240.65" style="fill:none;stroke:#f69321;stroke-linecap:round;stroke-miterlimit:10;stroke-width:0.75px"/><circle cx="214.08" cy="35.36" r="3.33" style="fill:none;stroke:#faaf42;stroke-miterlimit:10"/></svg>